<svg width="18" height="14" viewBox="0 0 18 14" fill="none" xmlns="http://www.w3.org/2000/svg">
<path d="M14.9332 1.94315C13.4757 0.77027 11.17 0.571453 11.0713 0.564301C10.9182 0.551428 10.7723 0.637248 10.7094 0.778852C10.7037 0.787434 10.6536 0.903291 10.5978 1.08351C11.5619 1.24657 12.7462 1.57412 13.8175 2.23923C13.9892 2.34507 14.0421 2.57107 13.9362 2.74271C13.8661 2.8557 13.7474 2.91721 13.6244 2.91721C13.5586 2.91721 13.4914 2.89861 13.4313 2.86142C11.589 1.71858 9.28906 1.66137 8.84566 1.66137C8.40225 1.66137 6.10084 1.71858 4.26 2.86142C4.08835 2.9687 3.86236 2.91578 3.75652 2.74414C3.64924 2.57107 3.70216 2.3465 3.8738 2.23923C4.94513 1.57555 6.12945 1.24657 7.09349 1.08494C7.03771 0.903291 6.98765 0.788864 6.98336 0.778852C6.91899 0.637248 6.77453 0.548567 6.62005 0.564301C6.52136 0.571453 4.21565 0.77027 2.73812 1.95888C1.96716 2.67262 0.423828 6.84349 0.423828 10.4494C0.423828 10.5137 0.440992 10.5752 0.47246 10.631C1.53663 12.5019 4.44165 12.9911 5.10389 13.0125C5.10676 13.0125 5.11105 13.0125 5.11534 13.0125C5.23263 13.0125 5.34276 12.9568 5.41142 12.8623L6.08082 11.9412C4.2743 11.4749 3.35173 10.6825 3.29881 10.6353C3.14719 10.5023 3.13289 10.2706 3.26734 10.119C3.40036 9.96735 3.63208 9.95304 3.78369 10.0861C3.80515 10.1061 5.50439 11.5479 8.84566 11.5479C12.1926 11.5479 13.8919 10.1004 13.9091 10.0861C14.0607 9.95447 14.291 9.96735 14.4254 10.1204C14.5584 10.272 14.5441 10.5023 14.3925 10.6353C14.3396 10.6825 13.417 11.4749 11.6105 11.9412L12.2799 12.8623C12.3486 12.9568 12.4587 13.0125 12.576 13.0125C12.5803 13.0125 12.5846 13.0125 12.5874 13.0125C13.2497 12.9911 16.1547 12.5019 17.2189 10.631C17.2503 10.5752 17.2675 10.5137 17.2675 10.4494C17.2675 6.84349 15.7242 2.67262 14.9332 1.94315ZM6.46558 8.9847C5.75756 8.9847 5.18399 8.32961 5.18399 7.52004C5.18399 6.71047 5.75756 6.05537 6.46558 6.05537C7.17359 6.05537 7.74716 6.71047 7.74716 7.52004C7.74716 8.32961 7.17359 8.9847 6.46558 8.9847ZM11.2257 8.9847C10.5177 8.9847 9.94416 8.32961 9.94416 7.52004C9.94416 6.71047 10.5177 6.05537 11.2257 6.05537C11.9338 6.05537 12.5073 6.71047 12.5073 7.52004C12.5073 8.32961 11.9338 8.9847 11.2257 8.9847Z" fill="white"/>
</svg>
