<svg width="9" height="17" viewBox="0 0 9 17" fill="none" xmlns="http://www.w3.org/2000/svg">
<path d="M6.81615 3.91309H8.50615C8.69273 3.91309 8.84415 3.76167 8.84415 3.57509V1.29799C8.84415 1.12088 8.70794 0.973508 8.5315 0.961002C7.99374 0.922808 6.94324 0.871094 6.18781 0.871094C4.11215 0.871094 2.76015 2.11493 2.76015 4.37548V6.61709H0.394152C0.207576 6.61709 0.0561523 6.76852 0.0561523 6.95509V9.32109C0.0561523 9.50767 0.207576 9.65909 0.394152 9.65909H2.76015V16.0811C2.76015 16.2677 2.91158 16.4191 3.09815 16.4191H5.46415C5.65073 16.4191 5.80215 16.2677 5.80215 16.0811V9.65909H8.24319C8.41557 9.65909 8.56023 9.52964 8.57916 9.35827L8.84212 6.99227C8.86443 6.79218 8.7076 6.61709 8.50615 6.61709H5.80215V4.92709C5.80215 4.36703 6.25609 3.91309 6.81615 3.91309Z" fill="white"/>
</svg>
