<svg width="19" height="14" viewBox="0 0 19 14" fill="none" xmlns="http://www.w3.org/2000/svg">
<path d="M14.5657 0.00390625C12.3613 0.00390625 10.5635 1.80009 10.5607 4.00383L8.06323 7.19136C8.0116 7.2573 7.98038 7.33691 7.97344 7.42037C7.9665 7.50384 7.98413 7.58751 8.02417 7.66108C8.0642 7.73464 8.12489 7.79489 8.19875 7.83438C8.2726 7.87387 8.3564 7.89089 8.43982 7.88334L8.56776 7.87161C9.74529 7.87688 10.7038 8.83754 10.7038 10.0163C10.7036 10.0337 10.7046 10.0512 10.7066 10.0685C10.6974 10.0999 10.6919 10.1322 10.6901 10.1649C10.6307 11.2686 9.7079 12.1618 8.55827 12.1618C7.88498 12.1618 7.29355 11.8639 6.90108 11.3882C6.86568 11.3434 6.82169 11.3061 6.77169 11.2785C6.72169 11.251 6.66668 11.2336 6.6099 11.2276C6.55312 11.2215 6.4957 11.2268 6.441 11.2433C6.3863 11.2597 6.33544 11.2868 6.29137 11.3232C6.24731 11.3595 6.21095 11.4043 6.1844 11.4548C6.15786 11.5054 6.14167 11.5607 6.1368 11.6176C6.13192 11.6745 6.13844 11.7318 6.15599 11.7862C6.17354 11.8405 6.20176 11.8908 6.23899 11.9341C6.79055 12.6027 7.62957 13.02 8.55827 13.02C10.0807 13.02 11.3284 11.8774 11.5148 10.4219C12.4498 9.68958 13.6031 8.78011 14.5721 8.01324C16.7751 8.00967 18.5706 6.2127 18.5706 4.00885C18.5706 1.80282 16.7717 0.00390625 14.5657 0.00390625ZM14.5657 0.862109C16.3074 0.862109 17.7124 2.26716 17.7124 4.00885C17.7124 5.75055 16.3074 7.1556 14.5657 7.1556H14.4227C14.326 7.15565 14.2322 7.18833 14.1564 7.24835C13.3229 7.90821 12.357 8.66821 11.4824 9.35502C11.2272 8.23724 10.3452 7.35399 9.22874 7.09526L11.3276 4.41644C11.3867 4.34095 11.4189 4.2478 11.4189 4.15189V4.00885C11.4189 2.26716 12.824 0.862109 14.5657 0.862109ZM14.5657 1.57728C13.2278 1.57728 12.1341 2.67102 12.1341 4.00885C12.1341 5.34669 13.2278 6.44043 14.5657 6.44043C15.9035 6.44043 16.9973 5.34669 16.9973 4.00885C16.9973 2.67102 15.9035 1.57728 14.5657 1.57728ZM14.5657 2.43548C15.4397 2.43548 16.1391 3.13482 16.1391 4.00885C16.1391 4.88289 15.4397 5.58223 14.5657 5.58223C13.6917 5.58223 12.9923 4.88289 12.9923 4.00885C12.9923 3.13482 13.6917 2.43548 14.5657 2.43548ZM2.29495 5.9697C1.79339 5.96548 1.30983 6.25466 1.09871 6.74186C0.818287 7.389 1.11568 8.15471 1.76527 8.4362L8.04228 11.1957C8.04955 11.1989 8.05691 11.2019 8.06435 11.2047C8.20813 11.2586 8.37232 11.3036 8.55827 11.3036C9.04772 11.3036 9.53047 11.01 9.73913 10.5135C10.0177 9.86731 9.72135 9.10392 9.07341 8.82228L2.79417 6.07586C2.7938 6.07567 2.79342 6.07549 2.79305 6.0753C2.63126 6.00519 2.46213 5.97111 2.29495 5.9697ZM2.28712 6.8293C2.34296 6.82927 2.3989 6.83996 2.45167 6.86283L8.72951 9.60841C8.72998 9.60859 8.73045 9.60878 8.73091 9.60896C8.93952 9.69936 9.04279 9.96361 8.95133 10.1747C8.95048 10.1765 8.94964 10.1784 8.94881 10.1803C8.87055 10.3681 8.72555 10.4454 8.55827 10.4454C8.51605 10.4454 8.45191 10.4328 8.36886 10.4021L2.10861 7.64951C2.10787 7.64923 2.10712 7.64895 2.10638 7.64867C1.89777 7.55828 1.79478 7.29403 1.88624 7.08296C1.93144 6.97866 2.01997 6.90074 2.1237 6.86031C2.17556 6.8401 2.23129 6.82934 2.28712 6.8293Z" fill="white"/>
</svg>
