<svg width="54" height="23" viewBox="0 0 54 23" fill="none" xmlns="http://www.w3.org/2000/svg">
<path d="M9.86364 2.89069C9.22914 3.64669 8.21832 4.24575 7.2092 4.158C7.07589 3.13875 7.57876 2.04694 8.15926 1.37025C8.79207 0.599063 9.89907 0.0455625 10.7968 0C10.9031 1.06481 10.488 2.11106 9.86532 2.89069H9.86364ZM10.7867 4.35881C9.32026 4.26938 8.06139 5.20088 7.36614 5.20088C6.6557 5.20088 5.59089 4.40269 4.43157 4.42969C2.92801 4.44825 1.52232 5.30719 0.757886 6.68925C-0.833426 9.43819 0.344449 13.5084 1.87332 15.7494C2.62089 16.8564 3.51526 18.0698 4.69482 18.036C5.81026 17.9904 6.25914 17.2986 7.60407 17.2986C8.96589 17.2986 9.35232 18.036 10.5403 18.009C11.7604 17.9904 12.5333 16.902 13.2808 15.795C14.133 14.5378 14.484 13.3059 14.5026 13.2452C14.484 13.2182 12.1384 12.3137 12.1215 9.58838C12.1029 7.30181 13.9659 6.21338 14.0453 6.15094C12.999 4.56975 11.3469 4.40269 10.785 4.3605L10.7867 4.35881ZM19.2512 1.26394V17.8943H21.8078V12.2091H25.3431C28.5679 12.2091 30.8359 9.96806 30.8359 6.73313C30.8359 3.49144 28.6134 1.26563 25.4308 1.26563L19.2512 1.26394ZM21.8078 3.44419H24.7524C26.9664 3.44419 28.2338 4.63894 28.2338 6.73988C28.2338 8.84081 26.9664 10.0457 24.7356 10.0457H21.8078V3.44419ZM35.4917 18.0174C37.0999 18.0174 38.5849 17.2007 39.2633 15.8979H39.3173V17.8943H41.6798V9.61369C41.6798 7.22419 39.783 5.67 36.8552 5.67C34.1484 5.67 32.1437 7.24275 32.0745 9.396H34.3678C34.5619 8.36831 35.4934 7.70006 36.786 7.70006C38.3503 7.70006 39.2211 8.4375 39.2211 9.79256V10.7055L36.0401 10.8996C33.0684 11.0835 31.4687 12.3053 31.4687 14.4416C31.4687 16.5949 33.1224 18.0191 35.4934 18.0191L35.4917 18.0174ZM36.1869 16.0481C34.8234 16.0481 33.9544 15.3883 33.9544 14.3792C33.9544 13.3329 34.7897 12.717 36.3793 12.6191L39.2194 12.4436V13.3836C39.2194 14.9411 37.9099 16.0481 36.1768 16.0481H36.1869ZM44.8354 22.4201C47.3211 22.4201 48.4922 21.4532 49.5114 18.5439L53.9934 5.83538H51.4014L48.396 15.6516H48.342L45.3366 5.83538H42.6653L46.9903 17.9381L46.7608 18.6756C46.3643 19.9159 45.7331 20.3968 44.6076 20.3968C44.4051 20.3968 44.0186 20.3715 43.86 20.3546V22.3509C44.0085 22.3931 44.643 22.4117 44.827 22.4117L44.8354 22.4201Z" fill="#9672FF"/>
</svg>
