<svg width="57" height="21" viewBox="0 0 57 21" fill="none" xmlns="http://www.w3.org/2000/svg">
<path d="M56.0022 4.66766L48.6925 21.0004H46.4315L49.1475 15.2849L44.335 4.66591H46.7132L50.1957 12.8052H50.2412L53.6135 4.66591L56.0022 4.66766ZM25.6327 9.71816V16.3349H23.335V0.00216395H29.4145C30.8576 -0.0373955 32.2629 0.466653 33.352 1.41441C34.4282 2.29816 35.0197 3.54766 35.0022 4.86891C35.0096 5.53383 34.8648 6.19163 34.5787 6.79192C34.2927 7.39221 33.873 7.91908 33.352 8.33216C32.295 9.26141 30.9825 9.71816 29.4145 9.71816H25.6327ZM25.624 2.01641V7.71266H29.4705C30.3079 7.7427 31.1233 7.44152 31.7402 6.87441C32.3335 6.34591 32.6607 5.62491 32.6607 4.87766C32.6607 4.12166 32.3317 3.40066 31.7402 2.88091C31.4381 2.59338 31.0819 2.36874 30.6923 2.22003C30.3026 2.07132 29.8873 2.00152 29.4705 2.01466L25.624 2.01641ZM39.6047 4.66766C41.0625 4.66766 42.221 5.07716 43.068 5.88916C43.915 6.70116 44.335 7.81241 44.335 9.22466V15.9779H42.4397V14.4554H42.3575C41.5367 15.7049 40.4517 16.3332 39.0937 16.3332C37.9265 16.3332 36.9605 15.9779 36.1765 15.2569C35.7982 14.9221 35.4971 14.5091 35.2941 14.0465C35.091 13.5839 34.9909 13.0828 35.0005 12.5777C35.0005 11.4472 35.41 10.5459 36.2395 9.87041C37.0602 9.20541 38.1627 8.86766 39.5382 8.86766C40.7142 8.86766 41.6802 9.09516 42.4362 9.54141V9.06716C42.4387 8.7229 42.3675 8.38209 42.2274 8.06759C42.0874 7.75309 41.8817 7.47217 41.6242 7.24366C41.1056 6.75817 40.4201 6.49063 39.7097 6.49641C38.6072 6.49641 37.7322 6.97941 37.0847 7.94541L35.3435 6.81491C36.3007 5.38341 37.7217 4.66416 39.5995 4.66416L39.6047 4.66766ZM37.0445 12.6249C37.0406 12.8842 37.098 13.1408 37.212 13.3738C37.326 13.6067 37.4935 13.8094 37.7007 13.9654C38.1382 14.3207 38.686 14.5132 39.2407 14.5027C40.0702 14.5027 40.8717 14.1562 41.465 13.5454C42.0932 12.9627 42.4502 12.1419 42.4502 11.2844C41.8307 10.7734 40.9732 10.5179 39.8707 10.5179C39.0587 10.5179 38.3937 10.7192 37.8565 11.1199C37.3192 11.5294 37.0445 12.0229 37.0445 12.6232V12.6249ZM9.52746 0.00216395C11.8837 -0.0262539 14.1621 0.844215 15.8992 2.43641L13.1832 5.09816C12.191 4.17766 10.8806 3.67771 9.52746 3.70341C8.34661 3.70919 7.19689 4.08272 6.23813 4.77208C5.27937 5.46144 4.55919 6.43237 4.1777 7.54991C3.77687 8.70736 3.77687 9.96597 4.1777 11.1234C4.55919 12.241 5.27937 13.2119 6.23813 13.9012C7.19689 14.5906 8.34661 14.9641 9.52746 14.9699C10.812 14.9699 11.9162 14.6514 12.772 14.0862C13.2643 13.7656 13.6862 13.3481 14.012 12.8592C14.3379 12.3703 14.5608 11.8202 14.6672 11.2424H9.52571V7.65141H18.5032C18.6135 8.27966 18.6677 8.90966 18.6677 9.54666C18.6677 12.3904 17.6282 14.7967 15.8327 16.4189C14.256 17.8417 12.0965 18.6694 9.52571 18.6694C7.77099 18.6784 6.04781 18.2031 4.54574 17.296C3.04366 16.3889 1.82089 15.0851 1.01196 13.5279C0.346866 12.2303 0 10.7931 0 9.33491C0 7.87677 0.346866 6.43954 1.01196 5.14191C1.81992 3.58623 3.04101 2.28332 4.5411 1.37629C6.04118 0.46926 7.76223 -0.00679375 9.51521 0.000414912L9.52746 0.00216395Z" fill="white"/>
</svg>
