<svg width="66" height="18" viewBox="0 0 66 18" fill="none" xmlns="http://www.w3.org/2000/svg">
<path fill-rule="evenodd" clip-rule="evenodd" d="M17.0583 12.0975C18.643 12.0975 19.8936 10.8802 19.8936 9.28074C19.8936 7.99739 18.9934 7.24955 17.7938 7.24955C16.2208 7.24955 14.9957 8.53291 14.9957 10.1324C14.9957 11.4157 15.8727 12.0975 17.0583 12.0975ZM5.23707 3.27918C5.26259 3.05742 5.45749 2.92532 5.65006 2.92532H6.25562C7.71269 2.92532 8.80781 3.12112 8.51083 4.87865C8.25329 6.54418 7.15817 6.73999 5.74055 6.73999L4.68255 6.78009L5.23707 3.27918ZM7.94471 2.33546e-05C10.3298 2.33546e-05 12.418 0.917717 12.418 3.67079L12.4203 3.66843C12.4203 7.443 10.1651 9.67 6.47836 9.67C6.36641 9.67 6.22339 9.65929 6.06342 9.64731C5.3382 9.59301 4.26464 9.51262 4.15819 10.2857L3.57815 13.7725C3.53871 14.1405 3.2162 14.5203 2.86818 14.5203H0.418077C0.160538 14.5203 -0.0343563 14.2585 0.00508657 13.9966L2.11876 0.615751C2.13695 0.447423 2.21527 0.291737 2.33887 0.178238C2.46247 0.0647391 2.62275 0.00132275 2.78929 2.33546e-05H7.94471ZM20.8217 4.82439H23.2718C23.5293 4.82439 23.7242 5.08625 23.6847 5.33632L22.3692 13.763C22.3042 14.1311 22.0073 14.5109 21.6592 14.5109H19.4412C19.1581 14.5109 19.0282 14.2891 19.0282 13.9872C19.0395 13.7116 19.0831 13.4383 19.1581 13.1733C18.346 14.091 16.9029 14.7326 15.7428 14.7326C13.2301 14.7326 11.657 13.0671 11.657 10.5122C11.657 7.40525 14.0676 4.58848 17.2254 4.58848C18.4504 4.58848 19.534 4.78665 20.2811 5.90015L20.2847 5.84798C20.31 5.48008 20.3551 4.82439 20.8217 4.82439ZM36.7032 5.51797L28.4921 17.6556V17.6603C28.4274 17.7582 28.3415 17.8398 28.241 17.8987C28.1404 17.9576 28.0279 17.9923 27.9121 18H25.4365C25.2161 18 25.0235 17.816 25.0235 17.5801C25.0235 17.2075 27.076 14.2795 27.593 13.5419L27.6662 13.4375C27.5885 13.1931 27.2262 12.1299 26.7895 10.8485C25.9869 8.49337 24.933 5.40094 24.933 5.29857C24.933 5.07682 25.1256 4.84091 25.346 4.84091H27.7566C27.9129 4.84602 28.0641 4.89865 28.1907 4.99201C28.3172 5.08537 28.4133 5.21516 28.4666 5.36463L29.8842 10.2786L33.2995 5.16647C33.3642 5.06941 33.4503 4.98916 33.5511 4.9322C33.6519 4.87524 33.7644 4.84316 33.8796 4.83855H36.3552C36.5756 4.83855 36.7682 5.07446 36.7682 5.29621C36.7682 5.38586 36.7682 5.45192 36.7032 5.51797ZM44.5523 2.33546e-05C46.9375 2.33546e-05 49.0256 0.917717 49.0256 3.67079C49.0256 7.44536 46.7681 9.67236 43.1069 9.67236C42.9955 9.67236 42.8529 9.66167 42.6933 9.64971C41.9688 9.5954 40.8932 9.51478 40.7867 10.2881L40.2067 14.0886C40.1417 14.3127 39.9491 14.5085 39.6916 14.5085H37.0489C36.803 14.5085 36.6104 14.2467 36.6359 13.9848L38.7241 0.615751C38.7498 0.443437 38.8357 0.286316 38.9661 0.173217C39.0965 0.0601175 39.2627 -0.00137562 39.4341 2.33546e-05H44.5523ZM57.427 4.82439H59.8771C60.1346 4.82439 60.3272 5.08625 60.2877 5.33632L58.9722 13.763C58.9072 14.1311 58.6103 14.5109 58.2622 14.5109H56.0325C55.7495 14.5109 55.6196 14.2891 55.6196 13.9872C55.6196 13.8097 55.6921 13.4544 55.7356 13.2414L55.7495 13.1733C54.9769 14.091 53.5337 14.7326 52.3342 14.7326C49.8215 14.7326 48.2484 13.0671 48.2484 10.5122C48.2484 7.40525 50.659 4.58848 53.8168 4.58848C55.0674 4.58848 56.1625 4.78665 56.8725 5.90015C56.8758 5.8697 56.8791 5.83652 56.8826 5.80132C56.9197 5.42739 56.9795 4.82439 57.427 4.82439ZM65.587 0.00238341C65.8074 0.00238341 66 0.19819 66 0.46005V0.500153L63.9118 13.763C63.8863 14.1311 63.5638 14.5109 63.2413 14.5109H61.1137C60.8562 14.5109 60.6636 14.2891 60.6636 14.0532L60.7007 13.9872L62.7889 0.356248C62.8144 0.160443 63.0093 0.00238341 63.2019 0.00238341H65.587ZM42.8633 2.92532H42.2832C42.0512 2.92532 41.8958 3.05742 41.8702 3.27918L41.3296 6.78009L42.3598 6.73999C44.035 6.73999 45.195 6.34602 45.195 4.38088C45.1811 2.99137 43.9607 2.92532 42.8633 2.92532ZM51.601 10.1324C51.601 8.52111 52.8261 7.24955 54.3991 7.24955C55.5987 7.24955 56.5012 7.99739 56.4873 9.28074C56.4873 10.892 55.2367 12.0975 53.6892 12.0975C52.5036 12.0975 51.601 11.4039 51.601 10.1324Z" fill="#9672FF"/>
</svg>
