<svg width="48" height="24" viewBox="0 0 48 24" fill="none" xmlns="http://www.w3.org/2000/svg">
<path d="M24.6004 19.8956C24.1183 21.4179 23.6187 22.1644 22.0879 22.3225C21.7826 22.3489 21.5854 22.3913 21.4744 22.5392C21.4264 22.6266 21.3976 22.7232 21.3897 22.8226C21.3819 22.9221 21.3954 23.022 21.4291 23.1159L21.4276 23.1115L21.4685 23.2974C21.5591 23.7277 21.711 24 22.1945 24C22.2442 24 22.2997 24 22.3581 23.9912C24.6018 23.8448 25.8026 22.6358 26.5066 19.8136L28.9052 10.1878C28.9472 10.0803 28.9652 9.96472 28.9579 9.8494C28.9506 9.73408 28.9181 9.62176 28.8628 9.52037L28.8643 9.52476C28.7785 9.4489 28.6771 9.3928 28.5673 9.36043C28.4575 9.32806 28.342 9.3202 28.2288 9.3374H28.2332H28.0448C27.926 9.31539 27.8038 9.31898 27.6865 9.34792C27.5691 9.37687 27.4593 9.4305 27.3642 9.50527C27.2692 9.58004 27.1911 9.67422 27.1351 9.78156C27.0792 9.8889 27.0467 10.0069 27.0398 10.1278V10.1308L25.3088 17.3428C25.0912 18.2298 24.7888 18.3967 24.2702 18.3967C23.6334 18.3967 23.3792 18.2445 23.125 17.3428L21.1647 10.1308C21.1539 10.009 21.1178 9.89083 21.0589 9.78379C21 9.67676 20.9194 9.58321 20.8224 9.50911C20.7253 9.43501 20.6139 9.382 20.4953 9.35344C20.3767 9.32488 20.2534 9.32141 20.1334 9.34326L20.1393 9.34179H19.9727C19.8599 9.32481 19.7448 9.33321 19.6356 9.36638C19.5265 9.39955 19.4261 9.45665 19.3417 9.53354C19.2885 9.63724 19.2592 9.75163 19.2562 9.86821C19.2532 9.98478 19.2764 10.1005 19.3242 10.2069L19.3227 10.2025L21.3093 17.4774C21.6803 18.8695 22.1273 20.0229 23.7736 20.0229H23.8189C24.0979 20.0229 24.3681 19.9805 24.6208 19.9L24.6018 19.9058L24.6004 19.8956ZM14.4657 13.5721C11.4712 13.5721 10.0762 14.585 10.0762 16.7587C10.0762 18.8666 11.5165 20.0273 14.1312 20.0273C17.2382 20.0273 18.6245 18.9676 18.6245 16.5904V12.4494C18.6245 10.1513 17.1477 9.03293 14.1108 9.03293H14.0056C13.2566 9.03259 12.5094 9.10662 11.775 9.25396L11.8466 9.24225C11.3193 9.35936 11.0987 9.49988 11.0987 10.0869V10.2537C11.0857 10.4294 11.1232 10.6052 11.2068 10.7602L11.2039 10.7558C11.2458 10.8168 11.3019 10.8666 11.3673 10.901C11.4327 10.9354 11.5054 10.9534 11.5793 10.9534L11.6129 10.9519H11.6114C11.7227 10.9497 11.8332 10.9329 11.9401 10.9022L11.9313 10.9051C12.6033 10.7616 13.3746 10.6797 14.1648 10.6797H14.1955C16.0419 10.6797 16.7942 11.192 16.7942 12.4494V13.5706L14.4657 13.5721ZM32.0019 5.99268C30.753 5.99268 30.2301 6.1859 30.2301 7.38326V14.6772C30.1957 15.7302 30.4694 16.7702 31.0174 17.6692L31.0043 17.6458C31.9932 19.2003 33.9257 20.0229 36.6135 20.0229C39.3013 20.0229 41.2514 19.2032 42.2403 17.6458C42.782 16.7506 43.0506 15.7162 43.013 14.6699V14.6787V9.05782H44.4665C44.616 9.05782 44.7594 8.99829 44.8652 8.89233C44.9709 8.78637 45.0303 8.64266 45.0303 8.4928V5.59307C45.0303 5.44322 44.9709 5.29951 44.8652 5.19354C44.7594 5.08758 44.616 5.02806 44.4665 5.02806H41.6078C41.4581 5.02844 41.3147 5.0883 41.209 5.19449C41.1033 5.30068 41.0439 5.44455 41.0439 5.59454V5.99415H40.8365C39.5876 5.99415 39.0646 6.18736 39.0646 7.38473V14.6787C39.0864 15.0801 38.9877 15.4788 38.7812 15.8234L38.7871 15.8146C38.4365 16.3518 37.7514 16.6036 36.6237 16.6065C35.496 16.6094 34.8095 16.3518 34.4604 15.8146C34.2755 15.5002 34.1786 15.1417 34.1799 14.7768L34.1828 14.6743V14.6787V7.37741C34.1828 6.18004 33.6599 5.98683 32.4124 5.98683L32.0019 5.99268ZM2.38685 5.99268C0.736214 5.98829 0 6.72603 0 8.37863V18.9983C0 19.638 0.204504 19.8429 0.842848 19.8429H1.05173C1.69008 19.8429 1.89458 19.638 1.89458 18.9983V14.8719H5.4734C8.65198 14.8719 10.1332 13.4667 10.1332 10.4308C10.1332 7.39497 8.6476 5.98829 5.4734 5.98829L2.38685 5.99268ZM45.4583 2.03464C45.3474 2.03464 45.241 2.0787 45.1624 2.15717C45.0838 2.23564 45.0395 2.34212 45.0391 2.45328V4.60795C45.0391 4.83923 45.2275 5.02806 45.4583 5.02806H47.5822C47.693 5.02806 47.7993 4.98395 47.8776 4.90544C47.956 4.82693 48 4.72045 48 4.60942V2.45914C47.9992 2.34795 47.9548 2.24155 47.8764 2.16293C47.7979 2.08431 47.6917 2.0398 47.5808 2.03903L45.4583 2.03464ZM43.3037 0C43.2282 0 43.1557 0.0300725 43.1023 0.083602C43.0489 0.137132 43.0189 0.209734 43.0189 0.285436V1.74774C43.0189 1.90583 43.146 2.03318 43.3022 2.03318H44.744C44.8195 2.03318 44.892 2.00311 44.9454 1.94958C44.9988 1.89605 45.0288 1.82345 45.0288 1.74774V0.285436C45.029 0.248021 45.0219 0.210937 45.0077 0.176315C44.9935 0.141693 44.9727 0.110214 44.9464 0.08369C44.92 0.0571655 44.8887 0.0361177 44.8542 0.0217554C44.8198 0.007393 44.7828 -4.97045e-07 44.7455 0H43.3037ZM14.1093 18.3996C12.6267 18.3996 11.9065 17.8624 11.9065 16.7602C11.9065 15.5453 12.6296 15.0725 14.4862 15.0725H16.7942V16.5289C16.7927 17.7116 16.3589 18.3996 14.1093 18.3996ZM5.4734 13.0964H1.89312V8.6304C1.89312 8.01122 2.12684 7.78141 2.74035 7.78141H5.4734C7.22629 7.78141 8.24005 8.21469 8.24005 10.4294C8.24005 12.1596 7.7989 13.0964 5.4734 13.0964Z" fill="#9672FF"/>
</svg>
