<svg width="20" height="14" viewBox="0 0 20 14" fill="none" xmlns="http://www.w3.org/2000/svg">
<path d="M0.589054 0.701875C1.80122 0.193438 3.01433 3.75862e-08 4.22681 3.75862e-08C8.07581 -0.000312462 11.9245 1.94812 15.7735 1.94812C16.7388 1.94812 17.7035 1.82563 18.6688 1.51938C18.7772 1.485 18.886 1.46875 18.9922 1.46875C19.53 1.46875 20 1.885 20 2.46281V12.3772C20 12.7719 19.7741 13.1459 19.4113 13.2978C18.1991 13.8066 16.986 14 15.7735 14C11.9245 14 8.0755 12.0516 4.2265 12.0516C3.2612 12.0516 2.29653 12.1741 1.33123 12.4803C1.22279 12.5147 1.11404 12.5309 1.0078 12.5309C0.469992 12.5309 0 12.1147 0 11.5369V1.62281C0.000312805 1.22781 0.226248 0.854063 0.589054 0.701875ZM10.0002 10C11.3811 10 12.5001 8.65656 12.5001 7C12.5001 5.34312 11.3808 4 10.0002 4C8.61955 4 7.5002 5.34312 7.5002 7C7.5002 8.65719 8.61987 10 10.0002 10Z" fill="white"/>
</svg>
