<svg width="21" height="24" viewBox="0 0 21 24" fill="none" xmlns="http://www.w3.org/2000/svg">
<path fill-rule="evenodd" clip-rule="evenodd" d="M10.3923 0L0 6.00001V18L10.3923 24L20.7846 18V6.00001L10.3923 0ZM11.0952 5.2801V2.03001L18.675 6.40618L15.8603 8.0312L11.0952 5.2801ZM2.10933 6.40613L9.68899 2.03001V5.28005L4.924 8.03115L2.10933 6.40613ZM5.62721 14.7511V9.24901L10.3922 6.49786L15.1572 9.24901V14.7512L10.3922 17.5022L5.62721 14.7511ZM16.5638 14.751V9.24885L19.3785 7.62383V16.376L16.5638 14.751ZM1.4064 7.62383L4.22106 9.24885V14.751L1.4064 16.376V7.62383ZM11.0952 18.7202L15.8603 15.969L18.6749 17.594L11.0952 21.9703V18.7202ZM2.10933 17.5941L4.924 15.969L9.68899 18.7202V21.9703L2.10933 17.5941Z" fill="#07CC00"/>
</svg>
