<svg width="19" height="20" viewBox="0 0 19 20" fill="none" xmlns="http://www.w3.org/2000/svg">
<path d="M13.2294 8.49999C13.396 7.83332 13.7421 5.79999 12.5421 4.99999C10.5421 3.66664 6.04213 5.49999 5.04213 8.49999C4.04213 11.5 4.54213 14.5 7.54213 15C11.0421 15.5833 13.2088 8.49999 14.5421 4.99999C12.7088 8.66666 10.5242 14.4955 12.5421 15C14.5421 15.5 17.8469 11.8194 18.0421 8.49999C18.2374 5.18053 15.042 1 10.5421 1C4.54211 1 0.542106 5.5 1.04211 10.5C1.54211 15.5 5.04199 18.5 9.54199 18.5C13.142 18.5 16.3754 16.3333 17.5421 15" stroke="#9672FF" stroke-width="1.5" stroke-linecap="round" stroke-linejoin="round"/>
</svg>
