<svg width="24" height="17" viewBox="0 0 24 17" fill="none" xmlns="http://www.w3.org/2000/svg">
<path d="M23.2935 1.03269C21.8389 0.425386 20.3831 0.194336 18.9281 0.194336C14.3092 0.193963 9.69075 2.52126 5.07187 2.52126C3.9135 2.52126 2.75587 2.37494 1.5975 2.00915C1.46737 1.96809 1.33687 1.94868 1.20937 1.94868C0.564 1.94868 0 2.44586 0 3.13603V14.9782C0 15.4496 0.271125 15.8964 0.7065 16.0778C2.16112 16.6855 3.61687 16.9166 5.07187 16.9166C9.69075 16.9166 14.3096 14.5893 18.9285 14.5893C20.0869 14.5893 21.2445 14.7356 22.4029 15.1014C22.533 15.1424 22.6635 15.1618 22.791 15.1618C23.4364 15.1618 24.0004 14.6647 24.0004 13.9745V2.1327C24 1.66089 23.7289 1.21447 23.2935 1.03269ZM12 12.1388C10.3429 12.1388 9 10.5341 9 8.55545C9 6.5764 10.3432 4.97211 12 4.97211C13.6567 4.97211 15 6.5764 15 8.55545C15 10.5349 13.6564 12.1388 12 12.1388Z" fill="white"/>
</svg>
