<svg width="17" height="17" viewBox="0 0 17 17" fill="none" xmlns="http://www.w3.org/2000/svg">
<path d="M14.1667 9.91683C14.9491 9.91683 15.5833 9.28257 15.5833 8.50016C15.5833 7.71776 14.9491 7.0835 14.1667 7.0835C13.3843 7.0835 12.75 7.71776 12.75 8.50016C12.75 9.28257 13.3843 9.91683 14.1667 9.91683Z" stroke="white" stroke-width="1.5" stroke-linecap="round" stroke-linejoin="round"/>
<path d="M14.1667 4.24984C14.9491 4.24984 15.5833 3.61557 15.5833 2.83317C15.5833 2.05077 14.9491 1.4165 14.1667 1.4165C13.3843 1.4165 12.75 2.05077 12.75 2.83317C12.75 3.61557 13.3843 4.24984 14.1667 4.24984Z" stroke="white" stroke-width="1.5" stroke-linecap="round" stroke-linejoin="round"/>
<path d="M14.1667 15.5833C14.9491 15.5833 15.5833 14.9491 15.5833 14.1667C15.5833 13.3843 14.9491 12.75 14.1667 12.75C13.3843 12.75 12.75 13.3843 12.75 14.1667C12.75 14.9491 13.3843 15.5833 14.1667 15.5833Z" stroke="white" stroke-width="1.5" stroke-linecap="round" stroke-linejoin="round"/>
<path d="M2.83317 9.91683C3.61557 9.91683 4.24984 9.28257 4.24984 8.50016C4.24984 7.71776 3.61557 7.0835 2.83317 7.0835C2.05077 7.0835 1.4165 7.71776 1.4165 8.50016C1.4165 9.28257 2.05077 9.91683 2.83317 9.91683Z" stroke="white" stroke-width="1.5" stroke-linecap="round" stroke-linejoin="round"/>
<path d="M4.25 8.5H12.75" stroke="white" stroke-width="1.5" stroke-linecap="round" stroke-linejoin="round"/>
<path d="M12.7498 2.8335H9.9165C8.49984 2.8335 7.7915 3.54183 7.7915 4.9585V12.0418C7.7915 13.4585 8.49984 14.1668 9.9165 14.1668H12.7498" stroke="white" stroke-width="1.5" stroke-linecap="round" stroke-linejoin="round"/>
</svg>
