<svg width="17" height="19" viewBox="0 0 17 19" fill="none" xmlns="http://www.w3.org/2000/svg">
<path fill-rule="evenodd" clip-rule="evenodd" d="M15.2931 17.0225C15.0465 17.0225 14.8248 16.8855 14.7146 16.6649L13.9803 15.1963C13.8906 15.0168 13.707 14.9035 13.5065 14.9035H10.3281C10.1275 14.9035 9.94414 15.0166 9.85439 15.1958L9.10427 16.6919C9.002 16.8958 8.79693 17.0225 8.56902 17.0225H8.54237C8.13915 17.0225 7.83434 16.6651 7.90041 16.2691C7.94858 15.9819 8.43788 13.0452 8.48548 12.758C8.58536 12.1595 9.0982 11.725 9.70484 11.725H14.1288C14.7358 11.725 15.2486 12.1597 15.3481 12.7586L15.9314 16.2696C15.9968 16.6644 15.6939 17.0225 15.2931 17.0225ZM2.9936 12.7492H4.26023C5.1365 12.7492 5.84947 12.0362 5.84947 11.16C5.84947 10.2837 5.1365 9.57073 4.26023 9.57073H3.73397C3.44188 9.57073 3.20423 9.33307 3.20423 9.04099C3.20423 8.7489 3.44188 8.51124 3.73397 8.51124H5.31973C6.19599 8.51124 6.90896 7.79827 6.90896 6.922C6.90896 6.04573 6.19599 5.33277 5.31973 5.33277H1.57987C1.7329 4.96232 1.9174 4.60803 2.12986 4.27328H4.26023C4.55289 4.27328 4.78998 4.03619 4.78998 3.74353C4.78998 3.45088 4.55289 3.21379 4.26023 3.21379H2.95593C4.68606 1.39076 7.21852 0.676897 9.593 1.255V3.74353C9.593 4.6198 10.306 5.33277 11.1822 5.33277H11.6767C11.9688 5.33277 12.2064 5.57042 12.2064 5.86251C12.2064 6.1546 11.9688 6.39226 11.6767 6.39226H9.55769C8.68142 6.39226 7.96845 7.10523 7.96845 7.98149C7.96845 8.85776 8.68142 9.57073 9.55769 9.57073H11.6802C11.9723 9.57073 12.2099 9.80839 12.2099 10.1005V10.6655H9.70484C8.57806 10.6655 7.62579 11.4723 7.44054 12.5836L7.07047 14.8044C5.47295 14.5989 4.0522 13.8482 2.9936 12.7492ZM1.23942 6.39226H5.31973C5.61181 6.39226 5.84947 6.62991 5.84947 6.922C5.84947 7.21409 5.61181 7.45175 5.31973 7.45175H3.73397C2.8577 7.45175 2.14474 8.16472 2.14474 9.04099C2.14474 9.91725 2.8577 10.6302 3.73397 10.6302H4.26023C4.55232 10.6302 4.78998 10.8679 4.78998 11.16C4.78998 11.4521 4.55232 11.6897 4.26023 11.6897H2.15486C1.46106 10.6115 1.05949 9.32997 1.05949 7.96054C1.05949 7.42124 1.12184 6.89625 1.23942 6.39226ZM14.3077 10.6729C14.1411 10.66 14.1231 10.6679 13.2694 10.6655V10.1005C13.2694 9.22421 12.5565 8.51124 11.6802 8.51124H9.55769C9.2656 8.51124 9.02794 8.27358 9.02794 7.98149C9.02794 7.6894 9.2656 7.45175 9.55769 7.45175H11.6767C12.553 7.45175 13.2659 6.73878 13.2659 5.86251C13.2659 4.98624 12.553 4.27328 11.6767 4.27328H11.1822C10.8901 4.27328 10.6525 4.03562 10.6525 3.74353V1.60633C14.1878 3.10967 15.7999 7.19333 14.3077 10.6729ZM16.9765 16.096L16.3932 12.585C16.2798 11.9018 15.8764 11.3341 15.3211 10.9976C15.7193 10.0359 15.9211 9.0165 15.9211 7.96054C15.9211 3.56107 12.3608 0 7.96054 0C3.56107 0 0 3.56031 0 7.96054C0 11.9459 2.95979 15.3245 6.89611 15.8502L6.85523 16.0949C6.68199 17.1349 7.48471 18.082 8.54237 18.082H8.56902C9.20028 18.082 9.76831 17.7314 10.0514 17.1669L10.6549 15.963H13.1791L13.767 17.1387C14.0578 17.7205 14.6427 18.082 15.2931 18.082C16.3458 18.082 17.1494 17.1369 16.9765 16.096Z" fill="#787686"/>
<path fill-rule="evenodd" clip-rule="evenodd" d="M10.8539 13.3144C10.8539 13.6071 10.6168 13.8442 10.3242 13.8442C10.0317 13.8442 9.79443 13.6071 9.79443 13.3144C9.79443 13.0218 10.0317 12.7847 10.3242 12.7847C10.6168 12.7847 10.8539 13.0218 10.8539 13.3144Z" fill="#787686"/>
<path fill-rule="evenodd" clip-rule="evenodd" d="M14.0326 13.3144C14.0326 13.6071 13.7955 13.8442 13.5029 13.8442C13.2104 13.8442 12.9731 13.6071 12.9731 13.3144C12.9731 13.0218 13.2104 12.7847 13.5029 12.7847C13.7955 12.7847 14.0326 13.0218 14.0326 13.3144Z" fill="#787686"/>
</svg>
