<svg width="17" height="17" viewBox="0 0 17 17" fill="none" xmlns="http://www.w3.org/2000/svg">
<path d="M6.55225 6.41064C7.81308 6.87106 9.18725 6.87106 10.4481 6.41064" stroke="white" stroke-width="1.5" stroke-linecap="round" stroke-linejoin="round"/>
<path d="M11.9141 1.4165H5.08573C3.57698 1.4165 2.35156 2.649 2.35156 4.15067V14.1311C2.35156 15.4061 3.26531 15.9444 4.38448 15.3282L7.84115 13.4086C8.20948 13.2032 8.80448 13.2032 9.16573 13.4086L12.6224 15.3282C13.7416 15.9515 14.6553 15.4132 14.6553 14.1311V4.15067C14.6482 2.649 13.4228 1.4165 11.9141 1.4165Z" stroke="white" stroke-width="1.5" stroke-linecap="round" stroke-linejoin="round"/>
<path d="M11.9141 1.4165H5.08573C3.57698 1.4165 2.35156 2.649 2.35156 4.15067V14.1311C2.35156 15.4061 3.26531 15.9444 4.38448 15.3282L7.84115 13.4086C8.20948 13.2032 8.80448 13.2032 9.16573 13.4086L12.6224 15.3282C13.7416 15.9515 14.6553 15.4132 14.6553 14.1311V4.15067C14.6482 2.649 13.4228 1.4165 11.9141 1.4165Z" stroke="white" stroke-width="1.5" stroke-linecap="round" stroke-linejoin="round"/>
</svg>
