<svg width="17" height="17" viewBox="0 0 17 17" fill="none" xmlns="http://www.w3.org/2000/svg">
<path d="M4.95824 15.583H3.5416C2.36801 15.583 1.41664 14.6316 1.41664 13.4581V3.5416C1.41664 2.36801 2.36801 1.41664 3.5416 1.41664H4.95824C5.34943 1.41664 5.66655 1.09951 5.66655 0.708319C5.66655 0.317125 5.34943 8.2438e-09 4.95824 0H3.5416C1.5866 0.00234179 0.00234179 1.5866 0 3.5416V13.4581C0.00234179 15.4131 1.5866 16.9973 3.5416 16.9997H4.95824C5.34943 16.9997 5.66655 16.6825 5.66655 16.2913C5.66655 15.9002 5.34943 15.583 4.95824 15.583Z" fill="white"/>
<path d="M13.1307 13.2505L16.3798 10.0022C17.2066 9.17125 17.2066 7.8284 16.3798 6.99748L13.1307 3.74913C12.8528 3.48069 12.411 3.48453 12.1378 3.75776C11.8646 4.03098 11.8607 4.47276 12.1292 4.75069L15.1693 7.79151H4.24982C3.85863 7.79151 3.5415 8.10863 3.5415 8.49983C3.5415 8.89102 3.85863 9.20814 4.24982 9.20814H15.17L12.1292 12.249C11.945 12.4268 11.8712 12.6902 11.936 12.9378C12.0008 13.1855 12.1942 13.3789 12.4419 13.4437C12.6895 13.5085 12.9529 13.4347 13.1307 13.2505Z" fill="white"/>
</svg>
