<svg width="17" height="19" viewBox="0 0 17 19" fill="none" xmlns="http://www.w3.org/2000/svg">
<path fill-rule="evenodd" clip-rule="evenodd" d="M12.8383 9.14588L13.7831 10.2414C13.7097 10.3047 11.9459 11.7914 8.5 11.7914C5.0541 11.7914 3.29032 10.3047 3.21688 10.2414L4.16174 9.14569L4.15778 9.1423C4.17209 9.15439 5.62838 10.3448 8.5 10.3448C11.3716 10.3448 12.8279 9.15439 12.8422 9.1423L12.8383 9.14588ZM9.80221 6.07656C9.80221 5.27747 10.2556 4.6299 10.8149 4.6299C11.3742 4.6299 11.8277 5.27747 11.8277 6.07656C11.8277 6.87561 11.3742 7.52337 10.8149 7.52337C10.2556 7.52337 9.80221 6.87561 9.80221 6.07656ZM5.20857 6.07656C5.20857 5.27747 5.66203 4.6299 6.22122 4.6299C6.78065 4.6299 7.23406 5.27747 7.23406 6.07656C7.23406 6.87561 6.78065 7.52337 6.22122 7.52337C5.66203 7.52337 5.20857 6.87561 5.20857 6.07656ZM15.5531 15.0727L13.3156 12.768L13.3106 14.8298L13.311 14.8301C10.0983 14.8305 4.01404 14.8311 2.89333 14.8294C2.09709 14.8281 1.44933 14.1791 1.44913 13.3828L1.44686 2.89387C1.44667 2.50728 1.59722 2.14394 1.87049 1.87063C2.14375 1.59737 2.50713 1.44686 2.89353 1.44686H14.1064C14.9042 1.44686 15.5531 2.09579 15.5531 2.89372V15.0727ZM14.1064 0H2.89353C2.12054 0 1.39382 0.301063 0.847249 0.847781C0.300869 1.39435 -0.000144991 2.12107 5.23926e-08 2.89425L0.00227241 13.3831C0.00265919 14.976 1.29863 16.2738 2.89125 16.2762C3.46635 16.277 5.34641 16.2774 7.4758 16.2774C10.2594 16.2774 13.4678 16.2768 14.7395 16.2766L17 18.5656V2.89372C17 1.29805 15.7019 0 14.1064 0Z" fill="#787686"/>
</svg>
