<svg width="19" height="19" viewBox="0 0 19 19" fill="none" xmlns="http://www.w3.org/2000/svg">
<path d="M9.61865 13.0625V14.725" stroke="white" stroke-width="1.5" stroke-linecap="round" stroke-linejoin="round"/>
<path d="M5.66064 17.4165H13.5773V16.6248C13.5773 15.754 12.8648 15.0415 11.994 15.0415H7.24398C6.37314 15.0415 5.66064 15.754 5.66064 16.6248V17.4165V17.4165Z" stroke="white" stroke-width="1.5" stroke-miterlimit="10"/>
<path d="M4.86865 17.4165H14.3687" stroke="white" stroke-width="1.5" stroke-linecap="round" stroke-linejoin="round"/>
<path d="M9.50016 12.6668C6.43641 12.6668 3.9585 10.1889 3.9585 7.12516V4.75016C3.9585 3.00058 5.37558 1.5835 7.12516 1.5835H11.8752C13.6247 1.5835 15.0418 3.00058 15.0418 4.75016V7.12516C15.0418 10.1889 12.5639 12.6668 9.50016 12.6668Z" stroke="white" stroke-width="1.5" stroke-linecap="round" stroke-linejoin="round"/>
<path d="M4.33065 9.22301C3.7369 9.03301 3.2144 8.68468 2.80273 8.27301C2.09023 7.48135 1.61523 6.53135 1.61523 5.42301C1.61523 4.31468 2.48607 3.44385 3.5944 3.44385H4.10898C3.95065 3.80801 3.87148 4.21176 3.87148 4.63135V7.00635C3.87148 7.79801 4.03773 8.54218 4.33065 9.22301Z" stroke="white" stroke-width="1.5" stroke-linecap="round" stroke-linejoin="round"/>
<path d="M14.6694 9.22301C15.2632 9.03301 15.7857 8.68468 16.1973 8.27301C16.9098 7.48135 17.3848 6.53135 17.3848 5.42301C17.3848 4.31468 16.514 3.44385 15.4057 3.44385H14.8911C15.0494 3.80801 15.1286 4.21176 15.1286 4.63135V7.00635C15.1286 7.79801 14.9624 8.54218 14.6694 9.22301Z" stroke="white" stroke-width="1.5" stroke-linecap="round" stroke-linejoin="round"/>
</svg>
