<svg width="14" height="7" viewBox="0 0 14 7" fill="none" xmlns="http://www.w3.org/2000/svg">
<path d="M6.99282 6.62276C6.2192 6.62418 5.4769 6.31726 4.93016 5.76993L0.163749 1.00293C-0.0573184 0.774044 -0.0541568 0.410216 0.170854 0.185205C0.395865 -0.0398063 0.759694 -0.0429678 0.988581 0.178099L5.75499 4.94509C6.43917 5.62743 7.54648 5.62743 8.23066 4.94509L12.9971 0.178099C13.1435 0.0264579 13.3604 -0.0343581 13.5644 0.0190259C13.7683 0.0724098 13.9276 0.231686 13.981 0.435636C14.0344 0.639586 13.9735 0.856472 13.8219 1.00293L9.05549 5.76993C8.50875 6.31726 7.76645 6.62418 6.99282 6.62276Z" fill="url(#paint0_linear_112:670)"/>
<defs>
<linearGradient id="paint0_linear_112:670" x1="7" y1="0" x2="7" y2="6.62276" gradientUnits="userSpaceOnUse">
<stop stop-color="#7255E9"/>
<stop offset="1" stop-color="#533391"/>
</linearGradient>
</defs>
</svg>
