<svg width="15" height="15" viewBox="0 0 15 15" fill="none" xmlns="http://www.w3.org/2000/svg">
<g clip-path="url(#clip0_1485_1865)">
<path d="M1.75781 0.0585947C0.931641 0.272462 0.266602 0.940431 0.0585938 1.76953C0 1.99512 0 2.10645 0 6.35742C0 10.6348 0 10.7168 0.0585938 10.9453C0.234375 11.6338 0.726562 12.2227 1.36523 12.5127C1.58496 12.6123 1.9834 12.7148 2.15625 12.7148H2.2793L2.29102 13.3066C2.30273 13.79 2.31445 13.9307 2.36133 14.0625C2.48438 14.4258 2.81543 14.7686 3.18457 14.915C3.33105 14.9736 3.40723 14.9854 3.72363 14.9854H4.08984L4.32422 14.8711C4.54395 14.7627 4.61133 14.7012 5.58105 13.7373L6.60938 12.7148H9.78516C12.8467 12.7148 12.9727 12.7119 13.2041 12.6563C14.0596 12.4512 14.7217 11.7979 14.9414 10.9453C15 10.7168 15 10.6348 15 6.35742C15 1.40625 15.0205 1.81641 14.748 1.25977C14.6279 1.01953 14.5693 0.940431 14.3145 0.685548C14.0596 0.430665 13.9805 0.372071 13.7402 0.251954C13.5879 0.178712 13.3564 0.0908213 13.2305 0.0585947C13.002 9.53674e-07 12.8936 9.53674e-07 7.48828 0.00293064C2.13867 0.00293064 1.97168 0.00586033 1.75781 0.0585947ZM12.7881 1.20117C13.0664 1.24219 13.2715 1.34473 13.4648 1.53516C13.6553 1.72852 13.7578 1.93359 13.7988 2.21192C13.8369 2.49024 13.8369 10.2217 13.7988 10.5029C13.7402 10.8984 13.4941 11.2383 13.1396 11.4141L12.9639 11.499L9.63867 11.5137C5.95605 11.5313 6.23438 11.5137 5.91797 11.7188C5.84473 11.7656 5.33789 12.252 4.79004 12.8027C3.91113 13.6846 3.78516 13.7988 3.70312 13.7988C3.64746 13.7988 3.5918 13.7754 3.55664 13.7373C3.50684 13.6816 3.50098 13.6113 3.48633 13.0254C3.47168 12.3955 3.46875 12.3721 3.39258 12.208C3.29297 12 3.20215 11.8828 3.01465 11.7422C2.83301 11.6074 2.66309 11.5518 2.30859 11.5166C1.95996 11.4814 1.74609 11.3877 1.53516 11.1797C1.35059 10.9922 1.23926 10.7695 1.20117 10.5029C1.16309 10.2217 1.16309 2.49024 1.20117 2.21192C1.24219 1.93359 1.34473 1.72852 1.53516 1.53516C1.72266 1.35059 1.93945 1.23926 2.18555 1.2041C2.4375 1.16602 12.5332 1.16602 12.7881 1.20117Z" fill="#CDCADB"/>
<path d="M3.72949 4.11914C3.54785 4.22754 3.45703 4.39746 3.45703 4.62891C3.45703 4.86328 3.54785 5.0332 3.73242 5.1416L3.8584 5.21484H7.5H11.1416L11.2676 5.1416C11.4521 5.0332 11.543 4.86328 11.543 4.62891C11.543 4.39453 11.4521 4.22461 11.2676 4.11621L11.1416 4.04297H7.49707H3.85254L3.72949 4.11914Z" fill="#CDCADB"/>
<path d="M3.72949 7.57617C3.54785 7.68457 3.45703 7.85449 3.45703 8.08594C3.45703 8.32031 3.54785 8.49023 3.73242 8.59863L3.8584 8.67188H6.0293C7.49121 8.67188 8.22656 8.66309 8.28223 8.63965C8.48145 8.56641 8.64258 8.31738 8.64258 8.08594C8.64258 7.85449 8.48145 7.60547 8.28223 7.53223C8.22656 7.50879 7.49121 7.5 6.02637 7.5H3.85254L3.72949 7.57617Z" fill="#CDCADB"/>
<path d="M9.82936 7.54102C9.46021 7.70508 9.38111 8.24707 9.6858 8.53125C9.81764 8.6543 9.90553 8.67188 10.3713 8.67188C10.6116 8.67188 10.843 8.65723 10.8899 8.63965C11.0891 8.56641 11.2503 8.31738 11.2503 8.08594C11.2503 7.85449 11.0891 7.60547 10.8899 7.53223C10.7669 7.48535 9.93775 7.49414 9.82936 7.54102Z" fill="#CDCADB"/>
</g>
<defs>
<clipPath id="clip0_1485_1865">
<rect width="15" height="15" fill="white"/>
</clipPath>
</defs>
</svg>
