<svg width="15" height="17" viewBox="0 0 15 17" fill="none" xmlns="http://www.w3.org/2000/svg">
<path d="M9.81477 0.680923C9.27024 0.783852 8.67922 1.04284 8.24094 1.36823C7.9886 1.55748 2.06516 7.44772 1.74309 7.83619C1.1554 8.53678 0.770241 9.34362 0.587624 10.2667C0.494655 10.7481 0.484694 11.6413 0.571023 12.1028C0.683913 12.727 0.886452 13.3048 1.16536 13.7962C1.73313 14.8022 2.66282 15.6423 3.69544 16.0739C4.90071 16.5753 6.20891 16.6284 7.45071 16.22C7.83919 16.0905 8.46672 15.7717 8.82864 15.5128C9.06106 15.3501 9.46946 14.9682 10.3825 14.0651C11.7206 12.7337 11.7771 12.6673 11.7372 12.395C11.6808 11.9799 11.2425 11.784 10.8839 12.0165C10.8042 12.0663 10.2298 12.6241 9.60891 13.2483C8.98801 13.8758 8.36712 14.4735 8.22766 14.5764C6.98255 15.4995 5.30579 15.6423 3.91458 14.9417C2.60969 14.2842 1.76301 13.0424 1.62688 11.5782C1.53723 10.6286 1.8095 9.63248 2.38723 8.79909C2.51008 8.62311 3.46301 7.65026 5.67102 5.43893C8.96477 2.14518 8.99133 2.12194 9.50266 1.91608C9.99739 1.71686 10.6681 1.6737 11.1695 1.80983C12.3747 2.13522 13.2148 3.29733 13.1351 4.52916C13.1019 5.03053 12.9458 5.47545 12.6437 5.91041C12.5773 6.01002 11.2657 7.34147 9.73508 8.86881C6.71692 11.8837 6.88294 11.7342 6.5011 11.7342C6.13587 11.7309 5.79387 11.4653 5.68762 11.1067C5.62786 10.8942 5.64114 10.7249 5.73743 10.509C5.78059 10.4161 6.45794 9.71217 8.07493 8.0819C10.0538 6.08639 10.3527 5.77428 10.3726 5.66803C10.4091 5.47213 10.3626 5.3194 10.2265 5.16998C10.107 5.04381 10.087 5.03385 9.88118 5.02057C9.70188 5.00729 9.64212 5.01725 9.55247 5.0737C9.4927 5.11354 8.43352 6.15612 7.19837 7.39459C5.53157 9.06471 4.92395 9.69557 4.8343 9.84498C4.36282 10.6385 4.48235 11.628 5.12317 12.2688C5.73411 12.8764 6.60735 13.0159 7.4009 12.6307C7.63997 12.5145 7.74954 12.4116 10.5154 9.64909C13.59 6.58112 13.6398 6.53131 13.9087 5.92702C14.2241 5.22311 14.3204 4.33991 14.1611 3.6028C13.8556 2.18502 12.7865 1.07936 11.3853 0.730727C11.0101 0.634438 10.19 0.611196 9.81477 0.680923Z" fill="#CDCADB"/>
</svg>
