<svg xmlns="http://www.w3.org/2000/svg" width="512" height="512" viewBox="0 0 512 512" version="1.1">
	<path d="M 98.235 40.652 C 67.142 94.306, 0.667 210.722, 0.667 211.519 C 0.667 212.826, 25.209 255.006, 25.957 254.985 C 26.256 254.977, 36.942 236.639, 49.704 214.235 C 76.889 166.513, 100.950 124.808, 101.901 123.764 C 102.270 123.360, 108.140 132.721, 114.946 144.567 L 127.320 166.105 125.774 169.348 C 123.975 173.119, 108.861 199.703, 75.161 258.369 C 53.094 296.783, 51.220 300.414, 52.440 302.369 C 53.172 303.541, 58.822 313.428, 64.995 324.340 C 71.169 335.252, 76.572 343.802, 77.003 343.340 C 77.434 342.878, 94.323 313.925, 114.534 279 C 134.745 244.075, 151.829 214.703, 152.500 213.728 C 153.562 212.185, 155.332 214.783, 166.248 233.913 L 178.778 255.868 164.571 280.684 C 156.757 294.333, 139.707 324.038, 126.682 346.694 C 113.657 369.351, 103 388.373, 103 388.964 C 103 390.184, 128.072 434.278, 128.498 433.806 C 128.650 433.638, 151.581 393.543, 179.455 344.707 L 230.135 255.914 182.416 172.707 C 105.888 39.266, 103.744 35.541, 102.955 34.652 C 102.542 34.185, 100.417 36.885, 98.235 40.652 M 155.119 36.250 C 156.377 38.631, 185.405 89.263, 229.218 165.500 L 255.653 211.500 383.782 211.754 L 511.912 212.008 487.640 169.754 C 474.291 146.514, 451.282 106.463, 436.510 80.750 L 409.652 34 332.711 34 L 255.770 34 257.292 36.323 C 261.437 42.650, 332 166.541, 332 167.492 C 332 167.772, 320.585 168, 306.634 168 L 281.268 168 243 101 L 204.732 34 179.331 34 L 153.930 34 155.119 36.250 M 334.173 79.325 C 334.353 80.073, 345.731 100.331, 359.457 124.343 L 384.413 168 409.707 168 C 423.618 168, 434.978 167.662, 434.951 167.250 C 434.924 166.838, 423.519 146.700, 409.605 122.500 L 384.308 78.500 359.077 78.233 C 338.213 78.012, 333.903 78.201, 334.173 79.325 M 278.614 261.250 C 277.255 263.587, 260.133 293.400, 240.564 327.500 L 204.985 389.500 281.484 390 L 357.983 390.500 345.708 412 L 333.434 433.500 256.088 434 L 178.741 434.500 166.439 455.985 C 159.673 467.802, 154.218 477.535, 154.318 477.614 C 154.418 477.693, 200.380 477.925, 256.455 478.129 L 358.411 478.500 396.693 412.500 C 417.749 376.200, 434.981 346.163, 434.988 345.750 C 434.995 345.337, 400.575 345, 358.500 345 C 316.425 345, 282 344.755, 282 344.455 C 282 344.155, 287.673 334.255, 294.607 322.455 L 307.214 301 384 301 L 460.786 301 473.393 279.545 C 480.327 267.745, 486 257.845, 486 257.545 C 486 257.245, 439.894 257, 383.542 257 L 281.084 257 278.614 261.250" stroke="none" fill="black" fill-rule="evenodd"/>
</svg>