<svg width="21" height="20" viewBox="0 0 21 20" fill="none" xmlns="http://www.w3.org/2000/svg">
<path d="M1.55556 2.69231C1.55556 2.90472 1.38336 3.07692 1.17094 3.07692H1.16239C0.949976 3.07692 0.777778 2.90472 0.777778 2.69231V2.69231C0.777778 2.47989 0.949976 2.30769 1.16239 2.30769H1.17094C1.38336 2.30769 1.55556 2.47989 1.55556 2.69231V2.69231Z" fill="white"/>
<path d="M6.22222 1.15385C6.22222 1.36626 6.05002 1.53846 5.83761 1.53846H5.82906C5.61664 1.53846 5.44444 1.36626 5.44444 1.15385V1.15385C5.44444 0.941429 5.61664 0.769231 5.82906 0.769231H5.83761C6.05002 0.769231 6.22222 0.941429 6.22222 1.15385V1.15385Z" fill="white"/>
<path d="M10.8889 0.384615C10.8889 0.597033 10.7167 0.769231 10.5043 0.769231H10.4957C10.2833 0.769231 10.1111 0.597033 10.1111 0.384615V0.384615C10.1111 0.172198 10.2833 0 10.4957 0H10.5043C10.7167 0 10.8889 0.172198 10.8889 0.384615V0.384615Z" fill="white"/>
<path d="M15.5556 1.15385C15.5556 1.36626 15.3834 1.53846 15.1709 1.53846H15.1624C14.95 1.53846 14.7778 1.36626 14.7778 1.15385V1.15385C14.7778 0.941429 14.95 0.769231 15.1624 0.769231H15.1709C15.3834 0.769231 15.5556 0.941429 15.5556 1.15385V1.15385Z" fill="white"/>
<path d="M20.2222 2.69231C20.2222 2.47989 20.05 2.30769 19.8376 2.30769H19.8291C19.6166 2.30769 19.4444 2.47989 19.4444 2.69231V2.69231C19.4444 2.90472 19.6166 3.07692 19.8291 3.07692H19.8376C20.05 3.07692 20.2222 2.90472 20.2222 2.69231V2.69231Z" fill="white"/>
<path fill-rule="evenodd" clip-rule="evenodd" d="M20.4101 9.28196C20.7427 9.68675 20.7064 10.2796 20.3271 10.6409L11.1897 19.3432C10.8034 19.711 10.1966 19.711 9.81034 19.3432L0.647129 10.6163C0.278572 10.2653 0.232448 9.69348 0.539983 9.28794L4.36655 4.24191C4.55561 3.9926 4.85046 3.84615 5.16335 3.84615H15.4718C15.771 3.84615 16.0545 3.98015 16.2445 4.21137L20.4101 9.28196ZM3.7001 8.84615C3.29222 8.84615 3.05595 8.38407 3.29476 8.05341L3.76133 7.40739C4.04534 7.01415 4.66667 7.21506 4.66667 7.70014V8.34615C4.66667 8.6223 4.44281 8.84615 4.16667 8.84615H3.7001ZM12.3079 8.06668C12.5318 8.39878 12.2938 8.84615 11.8933 8.84615H8.80708C8.38976 8.84615 8.15609 8.3651 8.41406 8.03707L10.0759 5.92393C10.2855 5.6574 10.694 5.67238 10.8835 5.95354L12.3079 8.06668ZM16.8223 7.16674C16.5192 6.81697 15.9444 7.03136 15.9444 7.49421V8.34615C15.9444 8.6223 16.1683 8.84615 16.4444 8.84615H17.1828C17.6113 8.84615 17.8413 8.34247 17.5606 8.01869L16.8223 7.16674ZM12.5765 11.0619C12.7006 10.7347 12.4589 10.3846 12.109 10.3846H8.5457C8.18424 10.3846 7.94221 10.7563 8.08844 11.0869L10.0071 15.4243C10.188 15.8331 10.7734 15.8173 10.9319 15.3993L12.5765 11.0619Z" fill="white"/>
</svg>
