<svg width="24" height="26" viewBox="0 0 24 26" fill="none" xmlns="http://www.w3.org/2000/svg">
<path fill-rule="evenodd" clip-rule="evenodd" d="M4.30848 4.64335C3.56357 4.9962 3.54142 6.04812 4.27082 6.43201L11.546 10.261C11.831 10.411 12.1708 10.4146 12.4589 10.2705L20.116 6.44198C20.87 6.065 20.8479 4.98155 20.0792 4.63563L12.4211 1.1895C12.1539 1.06927 11.8475 1.07226 11.5827 1.19769L4.30848 4.64335ZM12.9756 4.28049C12.4052 3.82419 11.5948 3.82419 11.0244 4.28049V4.28049C10.2429 4.90569 10.2429 6.09431 11.0244 6.71951V6.71951C11.5948 7.17581 12.4052 7.17581 12.9756 6.71951V6.71951C13.7571 6.09431 13.7571 4.90569 12.9756 4.28049V4.28049Z" stroke="#9672FF" stroke-linecap="round"/>
<path fill-rule="evenodd" clip-rule="evenodd" d="M10.5 12.664C10.5 12.2616 10.2589 11.8985 9.88806 11.7423L2.38806 8.58444C1.72892 8.30691 1 8.7909 1 9.50608V19.4234C1 19.7803 1.19015 20.1101 1.49896 20.2889L8.99896 24.631C9.66563 25.0169 10.5 24.5359 10.5 23.7656V12.664ZM4 11.5C3.44772 10.9477 2.55228 10.9477 2 11.5V11.5C1.44772 12.0523 1.44772 12.9477 2 13.5V13.5C2.55228 14.0523 3.44772 14.0523 4 13.5V13.5C4.55228 12.9477 4.55228 12.0523 4 11.5V11.5ZM6 21.5C5.44772 20.9477 5.44772 20.0523 6 19.5V19.5C6.55228 18.9477 7.44772 18.9477 8 19.5V19.5C8.55228 20.0523 8.55228 20.9477 8 21.5V21.5C7.44772 22.0523 6.55228 22.0523 6 21.5V21.5Z" stroke="#9672FF" stroke-linecap="round"/>
<path fill-rule="evenodd" clip-rule="evenodd" d="M13.5 12.677C13.5 12.2681 13.749 11.9004 14.1286 11.7486L22.1286 8.54856C22.7855 8.28581 23.5 8.76957 23.5 9.47703V19.4087C23.5 19.7734 23.3015 20.1092 22.9819 20.2849L14.9819 24.6849C14.3155 25.0515 13.5 24.5693 13.5 23.8087V12.677ZM18 19.5C17.4477 18.9477 16.5523 18.9477 16 19.5V19.5C15.4477 20.0523 15.4477 20.9477 16 21.5V21.5C16.5523 22.0523 17.4477 22.0523 18 21.5V21.5C18.5523 20.9477 18.5523 20.0523 18 19.5V19.5ZM18 13.5C17.4477 12.9477 16.5523 12.9477 16 13.5V13.5C15.4477 14.0523 15.4477 14.9477 16 15.5V15.5C16.5523 16.0523 17.4477 16.0523 18 15.5V15.5C18.5523 14.9477 18.5523 14.0523 18 13.5V13.5ZM22 11.5C21.4477 10.9477 20.5523 10.9477 20 11.5V11.5C19.4477 12.0523 19.4477 12.9477 20 13.5V13.5C20.5523 14.0523 21.4477 14.0523 22 13.5V13.5C22.5523 12.9477 22.5523 12.0523 22 11.5V11.5ZM20 19.5C19.4477 18.9477 19.4477 18.0523 20 17.5V17.5C20.5523 16.9477 21.4477 16.9477 22 17.5V17.5C22.5523 18.0523 22.5523 18.9477 22 19.5V19.5C21.4477 20.0523 20.5523 20.0523 20 19.5V19.5Z" stroke="#9672FF" stroke-linecap="round"/>
</svg>
