<svg width="34" height="34" viewBox="0 0 34 34" fill="none" xmlns="http://www.w3.org/2000/svg">
<g filter="url(#filter0_dd_2428_3770)">
<path d="M24.9998 7C25.1751 5.72425 25.0935 3.90188 25.0374 3.019C25.0196 2.73907 25.241 2.5 25.5215 2.5V2.5C25.7857 2.5 25.9998 2.28583 25.9998 2.02164V1.5C25.9998 1.22386 25.776 1 25.4998 1H8.49985C8.2237 1 7.99985 1.22386 7.99985 1.5V2.02164C7.99985 2.28583 8.21402 2.5 8.47821 2.5V2.5C8.75871 2.5 8.98009 2.73907 8.96229 3.019C8.90616 3.90188 8.82455 5.72425 8.99985 7M24.9998 7C25.6665 6.33333 27.1163 5.29325 27.9997 6C30.4998 8 26.4998 13.5 21.5792 14M24.9998 7C24.6746 9.36683 23.1859 11.8849 21.5792 14M8.99985 7C8.33318 6.33333 7.49976 5 5.99984 6C3.91975 7.38681 6.49977 13 12.4205 14M8.99985 7C9.32506 9.36683 10.8138 11.8849 12.4205 14M12.4205 14C13.652 15.6213 14.9528 17.0058 15.852 17.904C15.9466 17.9985 15.9998 18.1261 15.9998 18.2597V19.5C15.9998 19.7761 15.776 20 15.4998 20H13.707C13.5743 20 13.4472 20.0527 13.3534 20.1464L12.6463 20.8536C12.5525 20.9473 12.4998 21.0745 12.4998 21.2071V22.5C12.4998 22.7761 12.276 23 11.9998 23H11.4998C11.2237 23 10.9998 23.2239 10.9998 23.5V24.5C10.9998 24.7761 11.2237 25 11.4998 25H22.4998C22.776 25 22.9998 24.7761 22.9998 24.5V23.5C22.9998 23.2239 22.776 23 22.4998 23H21.9998C21.7237 23 21.4998 22.7761 21.4998 22.5V21.2071C21.4998 21.0745 21.4472 20.9473 21.3534 20.8536L20.6463 20.1464C20.5525 20.0527 20.4253 20 20.2927 20H18.4998C18.2237 20 17.9998 19.7761 17.9998 19.5V18.2597C17.9998 18.1261 18.0531 17.9985 18.1476 17.904C19.0469 17.0058 20.3477 15.6213 21.5792 14" stroke="#9672FF" shape-rendering="crispEdges"/>
</g>
<defs>
<filter id="filter0_dd_2428_3770" x="0.788086" y="0.5" width="32.4785" height="33" filterUnits="userSpaceOnUse" color-interpolation-filters="sRGB">
<feFlood flood-opacity="0" result="BackgroundImageFix"/>
<feColorMatrix in="SourceAlpha" type="matrix" values="0 0 0 0 0 0 0 0 0 0 0 0 0 0 0 0 0 0 127 0" result="hardAlpha"/>
<feOffset dy="4"/>
<feGaussianBlur stdDeviation="2"/>
<feComposite in2="hardAlpha" operator="out"/>
<feColorMatrix type="matrix" values="0 0 0 0 0 0 0 0 0 0 0 0 0 0 0 0 0 0 0.25 0"/>
<feBlend mode="normal" in2="BackgroundImageFix" result="effect1_dropShadow_2428_3770"/>
<feColorMatrix in="SourceAlpha" type="matrix" values="0 0 0 0 0 0 0 0 0 0 0 0 0 0 0 0 0 0 127 0" result="hardAlpha"/>
<feOffset dy="4"/>
<feGaussianBlur stdDeviation="2"/>
<feComposite in2="hardAlpha" operator="out"/>
<feColorMatrix type="matrix" values="0 0 0 0 0 0 0 0 0 0 0 0 0 0 0 0 0 0 0.25 0"/>
<feBlend mode="normal" in2="effect1_dropShadow_2428_3770" result="effect2_dropShadow_2428_3770"/>
<feBlend mode="normal" in="SourceGraphic" in2="effect2_dropShadow_2428_3770" result="shape"/>
</filter>
</defs>
</svg>
