<svg width="11" height="11" viewBox="0 0 11 11" fill="none" xmlns="http://www.w3.org/2000/svg">
<path d="M10.9555 1.89468H8.96124L8.34411 0L7.72915 1.89685H5.73486L7.34805 3.06831L6.73093 4.96299L8.34411 3.79154L9.9573 4.96299L9.34234 3.06614L10.9555 1.89468ZM8.34411 3.3498L7.41301 4.02756L7.76813 2.93189L6.83703 2.25413H7.989L8.34411 1.15846L8.69923 2.25413H9.8512L8.9201 2.93189L9.27522 4.02756L8.34411 3.3498Z" fill="#9672FF"/>
<path d="M7.91766 8.31516C5.05723 8.31516 2.72731 5.9874 2.72731 3.12697C2.72731 1.4813 3.55447 0.262207 3.55447 0.262207L3.05861 0.517719C1.19857 1.47264 0.0444336 3.36516 0.0444336 5.45256C0.0444336 8.51221 2.53243 11.0002 5.59207 11.0002C7.67947 11.0002 9.57199 9.8439 10.5269 7.98386L10.7824 7.48799C10.7824 7.48799 9.45723 8.31516 7.91766 8.31516ZM5.59207 10.6429C2.72947 10.6429 0.401717 8.31516 0.401717 5.45256C0.401717 3.68347 1.28735 2.06595 2.74896 1.11103C2.49778 1.75197 2.37002 2.42756 2.37002 3.12481C2.37002 6.18445 4.85802 8.67244 7.91766 8.67244C8.61707 8.67244 9.29266 8.54469 9.93361 8.29351C8.97869 9.75512 7.36117 10.6429 5.59207 10.6429Z" fill="#9672FF"/>
</svg>
