<svg width="11" height="11" viewBox="0 0 11 11" fill="none" xmlns="http://www.w3.org/2000/svg">
<g clip-path="url(#clip0_100:85)">
<path d="M5.4997 1.95117C3.54222 1.95117 1.95068 3.54271 1.95068 5.50019C1.95068 7.45767 3.54222 9.0492 5.4997 9.0492C7.45718 9.0492 9.04871 7.45767 9.04871 5.50019C9.04871 3.54271 7.45718 1.95117 5.4997 1.95117ZM5.4997 8.69408C3.73927 8.69408 2.3058 7.26062 2.3058 5.50019C2.3058 3.73975 3.73927 2.30629 5.4997 2.30629C7.26013 2.30629 8.6936 3.73975 8.6936 5.50019C8.6936 7.26062 7.26013 8.69408 5.4997 8.69408Z" fill="#7255E9"/>
<path d="M3.01611 5.49978H3.37123C3.37123 4.32616 4.32616 3.37123 5.49979 3.37123V3.01611C4.12911 3.01611 3.01611 4.12911 3.01611 5.49978Z" fill="#7255E9"/>
<path d="M5.67738 0H5.32227V1.41831H5.67738V0Z" fill="#7255E9"/>
<path d="M5.67738 9.58154H5.32227V10.9999H5.67738V9.58154Z" fill="#7255E9"/>
<path d="M1.736 1.48575L1.48486 1.73682L2.48759 2.73983L2.73873 2.48876L1.736 1.48575Z" fill="#7255E9"/>
<path d="M8.50989 8.26062L8.25879 8.51172L9.26166 9.51457L9.51276 9.26347L8.50989 8.26062Z" fill="#7255E9"/>
<path d="M1.41831 5.32227H0V5.67739H1.41831V5.32227Z" fill="#7255E9"/>
<path d="M10.9999 5.32227H9.58154V5.67739H10.9999V5.32227Z" fill="#7255E9"/>
<path d="M9.26313 1.48688L8.26025 2.48975L8.51136 2.74085L9.51423 1.73798L9.26313 1.48688Z" fill="#7255E9"/>
<path d="M2.48871 8.25983L1.48584 9.2627L1.73694 9.5138L2.73982 8.51093L2.48871 8.25983Z" fill="#7255E9"/>
</g>
<defs>
<clipPath id="clip0_100:85">
<rect width="11" height="11" fill="white"/>
</clipPath>
</defs>
</svg>
