<svg width="32" height="51" viewBox="0 0 32 51" fill="none" xmlns="http://www.w3.org/2000/svg">
<path d="M31.9763 33.0822C31.9749 33.0762 31.9752 33.0702 31.9734 33.0643C31.9699 33.052 31.9629 33.0423 31.9585 33.0303C31.953 33.0109 31.9465 32.9919 31.9389 32.9733L16.3576 0.256901C16.3547 0.250561 16.3503 0.24646 16.3471 0.240494C16.3389 0.225578 16.3299 0.211411 16.3202 0.197617C16.3158 0.190533 16.3118 0.183079 16.3068 0.176365C16.3015 0.169281 16.298 0.160706 16.2928 0.153992C16.284 0.142807 16.2738 0.134602 16.2641 0.124535C16.253 0.112976 16.2413 0.102165 16.2293 0.0920982C16.2141 0.0790482 16.1984 0.0671158 16.182 0.056675C16.1776 0.0540657 16.175 0.0492172 16.1706 0.046608C16.1653 0.0436249 16.1595 0.0447426 16.1542 0.0421333C16.1428 0.0361671 16.1317 0.0298309 16.1197 0.0249825C16.0812 0.00969315 16.0414 0.00149155 16.0011 0.00037384L15.9999 0L15.9979 0.000743866C15.9578 0.00186157 15.9178 0.00969696 15.8792 0.0249825C15.8672 0.0294571 15.8564 0.0361671 15.8447 0.0421333C15.8395 0.0447426 15.8336 0.0436249 15.8284 0.046608C15.824 0.0492172 15.8213 0.0540657 15.817 0.056675C15.8006 0.0671158 15.7851 0.0790482 15.7699 0.0920982C15.7579 0.102165 15.7462 0.112976 15.7351 0.124908C15.7255 0.134975 15.7153 0.143181 15.7065 0.154366C15.7009 0.161076 15.6974 0.169651 15.6925 0.176735C15.6878 0.183445 15.6837 0.190907 15.6793 0.197617C15.6697 0.211411 15.6603 0.225578 15.6518 0.240494C15.6486 0.24646 15.6445 0.250935 15.6416 0.256901L0.0603104 32.9733C0.0527115 32.9919 0.0462799 33.0109 0.0407276 33.0303C0.0363445 33.0423 0.0296211 33.0516 0.0258217 33.0643C0.0240688 33.0702 0.0243607 33.0762 0.0228996 33.0822C0.0141315 33.1168 0.00857735 33.1526 0.00565529 33.1888C0.00419426 33.2037 0.00097847 33.2183 0.000394821 33.2328C-0.00135803 33.2828 0.00273514 33.3331 0.0120869 33.3819C0.0135479 33.389 0.0167637 33.3954 0.0185165 33.4024C0.026701 33.4409 0.0383892 33.4781 0.0532951 33.5132L0.057972 33.521C0.0649872 33.5359 0.0746326 33.5486 0.0828152 33.5632C0.0983047 33.5911 0.115257 33.6172 0.134546 33.6411C0.138346 33.6452 0.14039 33.6512 0.143898 33.6553L15.7259 50.8701L15.7297 50.8731L15.7335 50.8787C15.7537 50.8962 15.7747 50.9119 15.7972 50.9246C15.8168 50.9413 15.8373 50.9563 15.8586 50.9686C15.8794 50.9757 15.9004 50.9805 15.9218 50.9835C15.965 51.0036 16.0121 51.0055 16.0562 50.9883C16.0857 50.9857 16.1146 50.9786 16.143 50.9678C16.1605 50.957 16.1775 50.9451 16.1936 50.9313C16.2193 50.9171 16.2438 50.8992 16.2669 50.8787L16.2707 50.8731L16.2745 50.8705L31.8558 33.6547C31.8596 33.6506 31.8617 33.6446 31.8652 33.6405C31.8845 33.6166 31.902 33.5905 31.9175 33.5626C31.9257 33.5484 31.9353 33.5357 31.9423 33.5204L31.947 33.5126C31.9619 33.4776 31.9733 33.4403 31.9815 33.4019C31.9832 33.3948 31.9865 33.3884 31.9879 33.3814C31.9973 33.3325 32.0014 33.2825 31.9996 33.2322C31.9993 33.2173 31.9958 33.2028 31.9943 33.1882C31.9914 33.1521 31.9851 33.1168 31.9763 33.0822ZM15.9993 2.3741L23.2246 32.7166H8.77387L15.9993 2.3741ZM14.6326 4.43416L7.89788 32.7168L1.16235 32.7168L14.6326 4.43416ZM1.54131 33.7858L7.96649 33.7858L14.223 47.6112L14.3914 47.9833L1.54131 33.7858ZM15.9988 49.3971L12.4665 41.5917L8.93414 33.7858H23.0632L19.5308 41.5917L15.9988 49.3971ZM17.6065 47.9833L17.7749 47.6112L24.0314 33.7858H30.4566L17.6065 47.9833ZM24.1001 32.7166L17.3654 4.43397L30.836 32.7166H24.1001Z" fill="url(#paint0_linear_4476_4133)"/>
<defs>
<linearGradient id="paint0_linear_4476_4133" x1="16" y1="51" x2="16" y2="0" gradientUnits="userSpaceOnUse">
<stop stop-color="#9A84DD"/>
<stop offset="1" stop-color="#4628C4"/>
</linearGradient>
</defs>
</svg>