<svg width="17" height="19" viewBox="0 0 17 19" fill="none" xmlns="http://www.w3.org/2000/svg">
<path fill-rule="evenodd" clip-rule="evenodd" d="M12.0479 2.22318C11.4446 1.71187 10.8122 1.1745 10.1683 0.588836C9.67429 0.139584 9.00713 -0.0685857 8.34534 0.0200363C7.70401 0.10476 7.13338 0.469823 6.78765 1.01659C5.87387 2.54359 5.22779 4.21555 4.87734 5.96024C4.73981 5.76169 4.61782 5.55281 4.51245 5.33548C4.29207 4.87115 3.85369 4.54815 3.34492 4.47522C2.83615 4.4023 2.32468 4.58916 1.98275 4.97289C0.696939 6.28684 -0.0158693 8.05673 0.000380944 9.89508C-0.0361834 13.759 2.56289 17.1515 6.30317 18.122C6.9991 18.2971 7.71359 18.3877 8.43119 18.3918C8.44269 18.3918 8.454 18.3933 8.4653 18.3949C8.47661 18.3964 8.48792 18.3979 8.49942 18.3979C8.58456 18.3979 8.66859 18.3919 8.75246 18.3858L8.79762 18.3826C13.3741 18.2344 17.0057 14.4786 17 9.89968C16.9969 6.42927 14.7062 4.48243 12.0529 2.22744L12.0479 2.22318ZM8.54943 16.8491L8.54929 16.8491H8.54926C8.50365 16.8514 8.45794 16.8537 8.41203 16.8533C7.8415 16.8099 7.29756 16.5945 6.85204 16.2354C6.18591 15.7857 5.74441 15.0721 5.63932 14.2753C5.509 13.0319 6.27558 11.406 7.84169 9.56928C8.0059 9.37746 8.24615 9.26757 8.49865 9.26878C8.74789 9.26697 8.9849 9.37662 9.14487 9.56775C10.5799 11.2711 11.3679 12.8426 11.3679 13.9932C11.3635 15.5049 10.1861 16.7534 8.67726 16.8464L8.67496 16.8449C8.63315 16.8449 8.59133 16.847 8.54943 16.8491ZM12.6947 15.4499C12.7213 15.4324 12.7479 15.4149 12.7731 15.3953L12.7754 15.3968C14.4756 14.0808 15.4681 12.0497 15.4615 9.89968C15.4615 7.138 13.6131 5.56819 11.0558 3.39625L11.0529 3.39374C10.4396 2.87477 9.79417 2.32283 9.13644 1.7249C8.97675 1.57896 8.76058 1.5113 8.54618 1.54016C8.35434 1.56345 8.18304 1.67146 8.07933 1.83452C7.2365 3.26092 6.64795 4.82293 6.33997 6.45085C6.22466 7.01399 5.78892 7.45663 5.22767 7.58078C4.67718 7.70967 4.10279 7.49872 3.76657 7.04418C3.52177 6.71789 3.30944 6.36846 3.13261 6.00087C2.09688 7.03043 1.52105 8.43477 1.53583 9.89508C1.52374 12.143 2.59633 14.2588 4.41663 15.5777C4.26081 15.214 4.1603 14.829 4.11843 14.4355C3.94212 12.7406 4.80298 10.7682 6.67726 8.57273C7.1322 8.03992 7.79805 7.73362 8.49865 7.73486H8.50172C9.2009 7.73544 9.86435 8.04389 10.3154 8.5781C11.4944 9.97863 12.9011 12.0545 12.9011 13.9917C12.9 14.5039 12.8089 15.0119 12.632 15.4926C12.6524 15.4777 12.6735 15.4638 12.6947 15.4499Z" fill="#21202B"/>
</svg>
