<svg width="19" height="19" viewBox="0 0 19 19" fill="none" xmlns="http://www.w3.org/2000/svg">
<path d="M10.9011 18.008H8.09863" stroke="#21202B" stroke-width="1.5" stroke-linecap="round" stroke-linejoin="round"/>
<path d="M9.5002 5.55664V8.35909" stroke="#21202B" stroke-width="1.5" stroke-linecap="round" stroke-linejoin="round"/>
<path fill-rule="evenodd" clip-rule="evenodd" d="M18 13.7478V13.7478C18 14.8707 17.0896 15.781 15.9668 15.781H3.0332C1.91035 15.781 1 14.8707 1 13.7478C1 13.0967 1.3111 12.4864 1.83725 12.1031C2.7799 11.418 3.3375 10.3232 3.3375 9.15783V7.38898C3.3375 4.11563 5.7923 1.24348 9.05715 1.01568C10.9322 0.88393 12.6416 1.59113 13.8605 2.81003C14.974 3.92268 15.6625 5.46203 15.6625 7.16203V9.15783C15.6625 10.3232 16.2201 11.418 17.1628 12.1031C17.6889 12.4864 18 13.0967 18 13.7478Z" stroke="#21202B" stroke-width="1.5" stroke-linecap="round"/>
</svg>
