<svg width="17" height="9" viewBox="0 0 17 9" fill="none" xmlns="http://www.w3.org/2000/svg">
<path d="M16.3791 2.95424L13.6316 0.207386C13.355 -0.0691285 12.9066 -0.0691285 12.63 0.207386C12.3535 0.483983 12.3535 0.932348 12.63 1.20895L15.1481 3.72843H0.708317C0.317124 3.72843 0 4.04555 0 4.43675C0 4.82794 0.317124 5.14506 0.708317 5.14506H15.1913L12.63 7.70563C12.497 7.83849 12.4223 8.01877 12.4223 8.20676C12.4223 8.39476 12.497 8.57504 12.63 8.7079C12.9066 8.98441 13.355 8.98441 13.6316 8.7079L16.3798 5.96034C17.207 5.1289 17.2067 3.78529 16.3791 2.95424Z" fill="white"/>
</svg>
