<svg width="16" height="16" viewBox="0 0 16 16" fill="none" xmlns="http://www.w3.org/2000/svg">
<path fill-rule="evenodd" clip-rule="evenodd" d="M11.8369 10.8951L15.813 14.8711C16.0655 15.1325 16.0618 15.548 15.8049 15.8049C15.548 16.0618 15.1325 16.0655 14.8711 15.813L10.8951 11.8369C8.14279 14.0873 4.10938 13.7843 1.72428 11.1479C-0.660827 8.51154 -0.559726 4.46803 1.95415 1.95415C4.46803 -0.559726 8.51154 -0.660827 11.1479 1.72428C13.7843 4.10938 14.0873 8.14279 11.8369 10.8951ZM1.35357 6.68252C1.35357 9.62562 3.73942 12.0115 6.68252 12.0115C9.62425 12.0082 12.0082 9.62425 12.0115 6.68252C12.0115 3.73942 9.62562 1.35357 6.68252 1.35357C3.73942 1.35357 1.35357 3.73942 1.35357 6.68252Z" fill="white"/>
</svg>