<svg width="82" height="84" viewBox="0 0 82 84" fill="none" xmlns="http://www.w3.org/2000/svg">
<g filter="url(#filter0_d_2966_2307)">
<path d="M42 29.5L41 26.5H48L43 32.5L42 29.5Z" fill="#9672FF"/>
<path d="M30 42.5V49.5H34V42.5H30Z" fill="#9672FF"/>
<path d="M36 39.5V49.5H40V39.5H36Z" fill="#9672FF"/>
<path d="M42 36.5V49.5H46V36.5H42Z" fill="#9672FF"/>
<path d="M48 33.5V49.5H52V33.5H48Z" fill="#9672FF"/>
<path d="M30.5 36L42 29.5M42 29.5L41 26.5H48L43 32.5L42 29.5ZM30 42.5V49.5H34V42.5H30ZM36 39.5V49.5H40V39.5H36ZM42 36.5V49.5H46V36.5H42ZM48 33.5V49.5H52V33.5H48Z" stroke="#9672FF" stroke-width="1.5" stroke-linecap="round" stroke-linejoin="round"/>
</g>
<defs>
<filter id="filter0_d_2966_2307" x="0.25" y="0.75" width="81.5" height="82.5" filterUnits="userSpaceOnUse" color-interpolation-filters="sRGB">
<feFlood flood-opacity="0" result="BackgroundImageFix"/>
<feColorMatrix in="SourceAlpha" type="matrix" values="0 0 0 0 0 0 0 0 0 0 0 0 0 0 0 0 0 0 127 0" result="hardAlpha"/>
<feOffset dy="4"/>
<feGaussianBlur stdDeviation="14.5"/>
<feComposite in2="hardAlpha" operator="out"/>
<feColorMatrix type="matrix" values="0 0 0 0 0.588235 0 0 0 0 0.447059 0 0 0 0 1 0 0 0 0.39 0"/>
<feBlend mode="normal" in2="BackgroundImageFix" result="effect1_dropShadow_2966_2307"/>
<feBlend mode="normal" in="SourceGraphic" in2="effect1_dropShadow_2966_2307" result="shape"/>
</filter>
</defs>
</svg>
