<svg width="83" height="83" viewBox="0 0 83 83" fill="none" xmlns="http://www.w3.org/2000/svg">
<g filter="url(#filter0_d_2966_2287)">
<path d="M50.7118 25.9998C50.7118 25.7236 50.4879 25.4998 50.2118 25.4998H33.2118C32.9356 25.4998 32.7118 25.7236 32.7118 25.9998V26.5214C32.7118 26.7856 32.9259 26.9998 33.1901 26.9998C33.4706 26.9998 33.692 27.2388 33.6742 27.5188C33.6181 28.4016 33.5365 30.224 33.7118 31.4998C34.037 33.8666 35.5257 36.3846 37.1324 38.4998C38.3639 40.121 39.6647 41.5056 40.5639 42.4038C40.6585 42.4982 40.7118 42.6259 40.7118 42.7595V43.9998C40.7118 44.2759 40.4879 44.4998 40.2118 44.4998H38.4189C38.2863 44.4998 38.1591 44.5524 38.0653 44.6462L37.3582 45.3533C37.2644 45.4471 37.2118 45.5743 37.2118 45.7069V46.9998C37.2118 47.2759 36.9879 47.4998 36.7118 47.4998H36.2118C35.9356 47.4998 35.7118 47.7236 35.7118 47.9998V48.9998C35.7118 49.2759 35.9356 49.4998 36.2118 49.4998H47.2118C47.4879 49.4998 47.7118 49.2759 47.7118 48.9998V47.9998C47.7118 47.7236 47.4879 47.4998 47.2118 47.4998H46.7118C46.4356 47.4998 46.2118 47.2759 46.2118 46.9998V45.7069C46.2118 45.5743 46.1591 45.4471 46.0653 45.3533L45.3582 44.6462C45.2644 44.5524 45.1373 44.4998 45.0046 44.4998H43.2118C42.9356 44.4998 42.7118 44.2759 42.7118 43.9998V42.7595C42.7118 42.6259 42.765 42.4982 42.8596 42.4038C43.7588 41.5056 45.0596 40.121 46.2911 38.4998C47.8978 36.3846 49.3865 33.8666 49.7118 31.4998C49.8871 30.224 49.8054 28.4016 49.7493 27.5188C49.7315 27.2388 49.9529 26.9998 50.2334 26.9998C50.4976 26.9998 50.7118 26.7856 50.7118 26.5214V25.9998Z" fill="#9672FF"/>
<path d="M49.7118 31.4998C49.8871 30.224 49.8054 28.4016 49.7493 27.5188C49.7315 27.2388 49.9529 26.9998 50.2334 26.9998V26.9998C50.4976 26.9998 50.7118 26.7856 50.7118 26.5214V25.9998C50.7118 25.7236 50.4879 25.4998 50.2118 25.4998H33.2118C32.9356 25.4998 32.7118 25.7236 32.7118 25.9998V26.5214C32.7118 26.7856 32.9259 26.9998 33.1901 26.9998V26.9998C33.4706 26.9998 33.692 27.2388 33.6742 27.5188C33.6181 28.4016 33.5365 30.224 33.7118 31.4998M49.7118 31.4998C50.3784 30.8331 51.8282 29.793 52.7116 30.4998C55.2117 32.4998 51.2117 37.9998 46.2911 38.4998M49.7118 31.4998C49.3865 33.8666 47.8978 36.3846 46.2911 38.4998M33.7118 31.4998C33.0451 30.8331 32.2117 29.4998 30.7118 30.4998C28.6317 31.8866 31.2117 37.4998 37.1324 38.4998M33.7118 31.4998C34.037 33.8666 35.5257 36.3846 37.1324 38.4998M37.1324 38.4998C38.3639 40.121 39.6647 41.5056 40.5639 42.4038C40.6585 42.4982 40.7118 42.6259 40.7118 42.7595V43.9998C40.7118 44.2759 40.4879 44.4998 40.2118 44.4998H38.4189C38.2863 44.4998 38.1591 44.5524 38.0653 44.6462L37.3582 45.3533C37.2644 45.4471 37.2118 45.5743 37.2118 45.7069V46.9998C37.2118 47.2759 36.9879 47.4998 36.7118 47.4998H36.2118C35.9356 47.4998 35.7118 47.7236 35.7118 47.9998V48.9998C35.7118 49.2759 35.9356 49.4998 36.2118 49.4998H47.2118C47.4879 49.4998 47.7118 49.2759 47.7118 48.9998V47.9998C47.7118 47.7236 47.4879 47.4998 47.2118 47.4998H46.7118C46.4356 47.4998 46.2118 47.2759 46.2118 46.9998V45.7069C46.2118 45.5743 46.1591 45.4471 46.0653 45.3533L45.3582 44.6462C45.2644 44.5524 45.1373 44.4998 45.0046 44.4998H43.2118C42.9356 44.4998 42.7118 44.2759 42.7118 43.9998V42.7595C42.7118 42.6259 42.765 42.4982 42.8596 42.4038C43.7588 41.5056 45.0596 40.121 46.2911 38.4998" stroke="#9672FF"/>
</g>
<defs>
<filter id="filter0_d_2966_2287" x="0.5" y="-0.000244141" width="82.4785" height="83" filterUnits="userSpaceOnUse" color-interpolation-filters="sRGB">
<feFlood flood-opacity="0" result="BackgroundImageFix"/>
<feColorMatrix in="SourceAlpha" type="matrix" values="0 0 0 0 0 0 0 0 0 0 0 0 0 0 0 0 0 0 127 0" result="hardAlpha"/>
<feOffset dy="4"/>
<feGaussianBlur stdDeviation="14.5"/>
<feComposite in2="hardAlpha" operator="out"/>
<feColorMatrix type="matrix" values="0 0 0 0 0.588235 0 0 0 0 0.447059 0 0 0 0 1 0 0 0 0.39 0"/>
<feBlend mode="normal" in2="BackgroundImageFix" result="effect1_dropShadow_2966_2287"/>
<feBlend mode="normal" in="SourceGraphic" in2="effect1_dropShadow_2966_2287" result="shape"/>
</filter>
</defs>
</svg>
