<svg width="28" height="28" viewBox="0 0 28 28" fill="none" xmlns="http://www.w3.org/2000/svg">
<rect opacity="0.3" width="28" height="28" rx="14" fill="#9672FF"/>
<path d="M9.58644 15.7679L9.01432 18.2423C8.99458 18.3328 8.99526 18.4265 9.0163 18.5167C9.03734 18.6068 9.07821 18.6911 9.13593 18.7634C9.19365 18.8357 9.26675 18.8942 9.34991 18.9346C9.43306 18.9749 9.52416 18.9962 9.61656 18.9967C9.65961 19.0011 9.70299 19.0011 9.74604 18.9967L12.2303 18.4234L17 13.6616L14.3381 11L9.58644 15.7679Z" fill="white"/>
<path d="M18.8072 11.046L16.9508 9.1896C16.8288 9.06817 16.6636 9 16.4914 9C16.3193 9 16.1541 9.06817 16.032 9.1896L15 10.2217L17.7783 13L18.8104 11.968C18.8708 11.9072 18.9186 11.8352 18.9512 11.756C18.9837 11.6768 19.0003 11.592 19 11.5063C18.9997 11.4207 18.9825 11.336 18.9495 11.257C18.9164 11.178 18.8681 11.1063 18.8072 11.046Z" fill="white"/>
</svg>
