<svg width="28" height="28" viewBox="0 0 28 28" fill="none" xmlns="http://www.w3.org/2000/svg">
<rect width="28" height="28" rx="14" fill="#9672FF"/>
<path fill-rule="evenodd" clip-rule="evenodd" d="M21 18.7333V10.3333H17.2667C16.6667 10.1333 16.3238 9.67619 15.981 9.21905C15.5238 8.60953 15.0667 8 14 8C13.0309 8 12.5612 8.59303 12.0852 9.19415C11.7166 9.6595 11.3442 10.1297 10.7333 10.3333H7V18.7333H21ZM17.2667 14.5333C17.2667 12.7292 15.8041 11.2667 14 11.2667C12.1959 11.2667 10.7333 12.7292 10.7333 14.5333C10.7333 16.3375 12.1959 17.8 14 17.8C15.8041 17.8 17.2667 16.3375 17.2667 14.5333ZM12.6 14.5333C12.6 13.7601 13.2268 13.1333 14 13.1333C14.7732 13.1333 15.4 13.7601 15.4 14.5333C15.4 15.3065 14.7732 15.9333 14 15.9333C13.2268 15.9333 12.6 15.3065 12.6 14.5333Z" fill="white"/>
<path d="M7 10.3333V18.7333H21V10.3333M7 10.3333C7 10.3333 9.45762 10.3333 10.7333 10.3333M7 10.3333H10.7333M21 10.3333C21 10.3333 18.7246 10.3333 17.2667 10.3333M21 10.3333H17.2667M10.7333 10.3333C13.467 10.3333 14.533 10.3333 17.2667 10.3333M10.7333 10.3333C11.3442 10.1297 11.7166 9.6595 12.0852 9.19415C12.5612 8.59303 13.0309 8 14 8C15.0667 8 15.5238 8.60953 15.981 9.21905C16.3238 9.67619 16.6667 10.1333 17.2667 10.3333M14 15.9333V15.9333C14.7732 15.9333 15.4 15.3065 15.4 14.5333V14.5333C15.4 13.7601 14.7732 13.1333 14 13.1333V13.1333C13.2268 13.1333 12.6 13.7601 12.6 14.5333V14.5333C12.6 15.3065 13.2268 15.9333 14 15.9333ZM14 17.8V17.8C15.8041 17.8 17.2667 16.3375 17.2667 14.5333V14.5333C17.2667 12.7292 15.8041 11.2667 14 11.2667V11.2667C12.1959 11.2667 10.7333 12.7292 10.7333 14.5333V14.5333C10.7333 16.3375 12.1959 17.8 14 17.8Z" stroke="white" stroke-linecap="round" stroke-linejoin="round"/>
</svg>
