<svg width="16" height="13" viewBox="0 0 16 13" fill="none" xmlns="http://www.w3.org/2000/svg">
<path fill-rule="evenodd" clip-rule="evenodd" d="M15 11.7333V3.33333H11.2667C10.6667 3.13333 10.3238 2.67619 9.98095 2.21905C9.52381 1.60953 9.06667 1 8 1C7.03092 0.999996 6.56124 1.59303 6.08517 2.19415C5.71661 2.6595 5.34422 3.1297 4.73333 3.33333H1V11.7333H15ZM11.2667 7.53333C11.2667 5.7292 9.80413 4.26667 8 4.26667C6.19587 4.26667 4.73333 5.7292 4.73333 7.53333C4.73333 9.33746 6.19587 10.8 8 10.8C9.80413 10.8 11.2667 9.33746 11.2667 7.53333ZM6.6 7.53333C6.6 6.76013 7.2268 6.13333 8 6.13333C8.7732 6.13333 9.4 6.76013 9.4 7.53333C9.4 8.30653 8.7732 8.93333 8 8.93333C7.2268 8.93333 6.6 8.30653 6.6 7.53333Z" fill="white"/>
<path d="M1 3.33333V11.7333H15V3.33333M1 3.33333C1 3.33333 3.45762 3.33333 4.73333 3.33333M1 3.33333H4.73333M15 3.33333C15 3.33333 12.7246 3.33333 11.2667 3.33333M15 3.33333H11.2667M4.73333 3.33333C7.467 3.33333 8.533 3.33333 11.2667 3.33333M4.73333 3.33333C5.34422 3.1297 5.71661 2.6595 6.08517 2.19415C6.56124 1.59303 7.03092 0.999996 8 1C9.06667 1 9.52381 1.60953 9.98095 2.21905C10.3238 2.67619 10.6667 3.13333 11.2667 3.33333M8 8.93333V8.93333C8.7732 8.93333 9.4 8.30653 9.4 7.53333V7.53333C9.4 6.76013 8.7732 6.13333 8 6.13333V6.13333C7.2268 6.13333 6.6 6.76013 6.6 7.53333V7.53333C6.6 8.30653 7.2268 8.93333 8 8.93333ZM8 10.8V10.8C9.80413 10.8 11.2667 9.33746 11.2667 7.53333V7.53333C11.2667 5.7292 9.80413 4.26667 8 4.26667V4.26667C6.19587 4.26667 4.73333 5.7292 4.73333 7.53333V7.53333C4.73333 9.33746 6.19587 10.8 8 10.8Z" stroke="white" stroke-linecap="round" stroke-linejoin="round"/>
</svg>
