<svg width="86" height="95" viewBox="0 0 86 95" fill="none" xmlns="http://www.w3.org/2000/svg">
<g filter="url(#filter0_d_2966_2297)">
<path d="M48.7855 51.59L46.0647 50.7788C45.7281 50.6784 45.3635 50.762 45.1042 50.9991L43.6748 52.3061C43.2928 52.6554 42.7072 52.6554 42.3252 52.3061L40.8958 50.9991C40.6365 50.762 40.2719 50.6784 39.9353 50.7788L37.2145 51.59V61L43 56.9615L48.7855 61V51.59Z" fill="#9672FF"/>
<path d="M48.3337 39.4615C48.3337 42.4354 45.9457 44.8462 43 44.8462C40.0542 44.8462 37.6663 42.4354 37.6663 39.4615C37.6663 36.4877 40.0542 34.0769 43 34.0769C45.9457 34.0769 48.3337 36.4877 48.3337 39.4615Z" fill="#9672FF"/>
<path d="M37.2145 61H36.7145C36.7145 61.1863 36.8181 61.3572 36.9833 61.4433C37.1485 61.5295 37.3479 61.5166 37.5006 61.41L37.2145 61ZM43 56.9615L43.2862 56.5515L43 56.3518L42.7138 56.5515L43 56.9615ZM48.7855 61L48.4994 61.41C48.6521 61.5166 48.8515 61.5295 49.0167 61.4433C49.1819 61.3572 49.2855 61.1863 49.2855 61H48.7855ZM39.9353 28.1443L40.0781 27.6652L39.9353 28.1443ZM40.8958 27.924L41.2332 28.293L40.8958 27.924ZM38.0876 27.5934L37.9447 28.0726L38.0876 27.5934ZM36.1434 29.9937L35.6795 29.807L36.1434 29.9937ZM30.4364 37.2509L29.9995 37.4939L30.4364 37.2509ZM30.7335 35.948L30.4451 35.5396L30.7335 35.948ZM31.3955 38.9755L30.9586 39.2185L31.3955 38.9755ZM30.7335 42.975L31.022 42.5666L30.7335 42.975ZM32.3324 44.1042L32.044 44.5126L32.3324 44.1042ZM32.631 46.9526L32.1319 46.9215L32.631 46.9526ZM35.3781 48.3161L35.2969 48.8095L35.3781 48.3161ZM39.9353 50.7788L39.7924 50.2996L39.9353 50.7788ZM43.6748 52.3061L43.3374 51.9371L43.6748 52.3061ZM42.3252 52.3061L42.6626 51.9371L42.3252 52.3061ZM46.0647 50.7788L46.2076 50.2996L46.0647 50.7788ZM45.1042 50.9991L45.4416 51.3681L45.1042 50.9991ZM49.8566 48.9294L50.3205 49.1161L49.8566 48.9294ZM53.369 46.9526L52.87 46.9837L53.369 46.9526ZM52.5334 48.0015L52.6146 48.4948L52.5334 48.0015ZM53.6676 44.1042L53.3792 43.6958L53.6676 44.1042ZM53.2464 44.9832L52.7474 45.0143L53.2464 44.9832ZM54.6045 38.9755L55.0414 39.2185L54.6045 38.9755ZM54.6045 39.9476L55.0414 39.7045L54.6045 39.9476ZM55.2665 35.948L54.978 36.3564L55.2665 35.948ZM55.5636 37.2509L56.0005 37.4939L55.5636 37.2509ZM53.2464 33.9399L53.7454 33.971L53.2464 33.9399ZM53.6676 34.8189L53.956 34.4104L53.6676 34.8189ZM52.5334 30.9216L52.4522 31.415L52.5334 30.9216ZM49.8566 29.9937L49.3928 30.1804L49.8566 29.9937ZM50.6219 30.607L50.5407 31.1003L50.6219 30.607ZM49.1258 28.1783L49.5896 27.9916L49.1258 28.1783ZM45.1042 27.924L45.4416 27.555L45.1042 27.924ZM46.0647 28.1443L45.9219 27.6652L46.0647 28.1443ZM43.3374 26.986L44.7668 28.293L45.4416 27.555L44.0122 26.248L43.3374 26.986ZM46.2076 28.6235L48.0553 28.0726L47.7696 27.1143L45.9219 27.6652L46.2076 28.6235ZM48.662 28.365L49.3928 30.1804L50.3205 29.807L49.5896 27.9916L48.662 28.365ZM50.5407 31.1003L52.4522 31.415L52.6146 30.4282L50.7031 30.1136L50.5407 31.1003ZM52.87 31.9394L52.7474 33.9088L53.7454 33.971L53.8681 32.0015L52.87 31.9394ZM53.3792 35.2273L54.978 36.3564L55.5549 35.5396L53.956 34.4104L53.3792 35.2273ZM55.1266 37.0079L54.1675 38.7325L55.0414 39.2185L56.0005 37.4939L55.1266 37.0079ZM54.1675 40.1906L55.1266 41.9152L56.0005 41.4292L55.0414 39.7045L54.1675 40.1906ZM54.978 42.5666L53.3792 43.6958L53.956 44.5126L55.5549 43.3835L54.978 42.5666ZM52.7474 45.0143L52.87 46.9837L53.8681 46.9215L53.7454 44.9521L52.7474 45.0143ZM52.4522 47.5081L50.5407 47.8228L50.7031 48.8095L52.6146 48.4948L52.4522 47.5081ZM49.3928 48.7427L48.3217 51.4032L49.2494 51.7767L50.3205 49.1161L49.3928 48.7427ZM48.9284 51.1108L46.2076 50.2996L45.9219 51.2579L48.6427 52.0691L48.9284 51.1108ZM44.7668 50.6301L43.3374 51.9371L44.0122 52.6751L45.4416 51.3681L44.7668 50.6301ZM42.6626 51.9371L41.2332 50.6301L40.5584 51.3681L41.9878 52.6751L42.6626 51.9371ZM39.7924 50.2996L37.0716 51.1108L37.3573 52.0691L40.0781 51.2579L39.7924 50.2996ZM37.6783 51.4032L36.6072 48.7427L35.6795 49.1161L36.7506 51.7767L37.6783 51.4032ZM35.4593 47.8228L33.5478 47.5081L33.3854 48.4948L35.2969 48.8095L35.4593 47.8228ZM33.13 46.9837L33.2526 45.0143L32.2546 44.9521L32.1319 46.9215L33.13 46.9837ZM32.6208 43.6958L31.022 42.5666L30.4451 43.3835L32.044 44.5126L32.6208 43.6958ZM30.8734 41.9152L31.8325 40.1906L30.9586 39.7045L29.9995 41.4292L30.8734 41.9152ZM31.8325 38.7325L30.8734 37.0079L29.9995 37.4939L30.9586 39.2185L31.8325 38.7325ZM31.022 36.3564L32.6208 35.2273L32.044 34.4104L30.4451 35.5396L31.022 36.3564ZM33.2526 33.9088L33.13 31.9394L32.1319 32.0015L32.2546 33.971L33.2526 33.9088ZM33.5478 31.415L35.4593 31.1003L35.2969 30.1136L33.3854 30.4282L33.5478 31.415ZM36.6072 30.1804L37.338 28.365L36.4104 27.9916L35.6795 29.807L36.6072 30.1804ZM37.9447 28.0726L39.7924 28.6235L40.0781 27.6652L38.2304 27.1143L37.9447 28.0726ZM41.2332 28.293L42.6626 26.986L41.9878 26.248L40.5584 27.555L41.2332 28.293ZM36.7145 51.59V61H37.7145V51.59H36.7145ZM37.5006 61.41L43.2862 57.3715L42.7138 56.5515L36.9283 60.59L37.5006 61.41ZM42.7138 57.3715L48.4994 61.41L49.0717 60.59L43.2862 56.5515L42.7138 57.3715ZM49.2855 61V51.59H48.2855V61H49.2855ZM47.8337 39.4615C47.8337 42.1637 45.6651 44.3462 43 44.3462V45.3462C46.2263 45.3462 48.8337 42.707 48.8337 39.4615H47.8337ZM43 44.3462C40.3349 44.3462 38.1663 42.1637 38.1663 39.4615H37.1663C37.1663 42.707 39.7736 45.3462 43 45.3462V44.3462ZM38.1663 39.4615C38.1663 36.7594 40.3349 34.5769 43 34.5769V33.5769C39.7736 33.5769 37.1663 36.216 37.1663 39.4615H38.1663ZM43 34.5769C45.6651 34.5769 47.8337 36.7594 47.8337 39.4615H48.8337C48.8337 36.216 46.2263 33.5769 43 33.5769V34.5769ZM39.7924 28.6235C40.2974 28.774 40.8443 28.6486 41.2332 28.293L40.5584 27.555C40.4288 27.6735 40.2465 27.7154 40.0781 27.6652L39.7924 28.6235ZM37.338 28.365C37.4344 28.1255 37.6973 27.9988 37.9447 28.0726L38.2304 27.1143C37.4882 26.893 36.6996 27.2731 36.4104 27.9916L37.338 28.365ZM35.4593 31.1003C35.9764 31.0152 36.4115 30.6665 36.6072 30.1804L35.6795 29.807C35.6143 29.969 35.4693 30.0852 35.2969 30.1136L35.4593 31.1003ZM30.8734 37.0079C30.7493 36.7847 30.8133 36.5038 31.022 36.3564L30.4451 35.5396C29.8192 35.9816 29.6271 36.8243 29.9995 37.4939L30.8734 37.0079ZM31.8325 40.1906C32.0846 39.7372 32.0846 39.1858 31.8325 38.7325L30.9586 39.2185C31.0426 39.3696 31.0426 39.5534 30.9586 39.7045L31.8325 40.1906ZM31.022 42.5666C30.8133 42.4193 30.7493 42.1384 30.8734 41.9152L29.9995 41.4292C29.6271 42.0988 29.8192 42.9415 30.4451 43.3835L31.022 42.5666ZM33.2526 45.0143C33.285 44.4949 33.0458 43.996 32.6208 43.6958L32.044 44.5126C32.1856 44.6127 32.2653 44.779 32.2546 44.9521L33.2526 45.0143ZM33.5478 47.5081C33.2946 47.4664 33.1141 47.2398 33.13 46.9837L32.1319 46.9215C32.0841 47.6899 32.6257 48.3698 33.3854 48.4948L33.5478 47.5081ZM36.6072 48.7427C36.4115 48.2566 35.9764 47.9079 35.4593 47.8228L35.2969 48.8095C35.4693 48.8378 35.6143 48.9541 35.6795 49.1161L36.6072 48.7427ZM41.2332 50.6301C40.8443 50.2745 40.2974 50.149 39.7924 50.2996L40.0781 51.2579C40.2465 51.2077 40.4288 51.2495 40.5584 51.3681L41.2332 50.6301ZM43.3374 51.9371C43.1464 52.1117 42.8536 52.1117 42.6626 51.9371L41.9878 52.6751C42.5609 53.1991 43.4391 53.1991 44.0122 52.6751L43.3374 51.9371ZM46.2076 50.2996C45.7026 50.149 45.1557 50.2745 44.7668 50.6301L45.4416 51.3681C45.5712 51.2495 45.7535 51.2077 45.9219 51.2579L46.2076 50.2996ZM50.5407 47.8228C50.0236 47.9079 49.5885 48.2566 49.3928 48.7427L50.3205 49.1161C50.3857 48.9541 50.5307 48.8378 50.7031 48.8095L50.5407 47.8228ZM52.87 46.9837C52.8859 47.2398 52.7054 47.4664 52.4522 47.5081L52.6146 48.4948C53.3743 48.3698 53.9159 47.6899 53.8681 46.9215L52.87 46.9837ZM53.3792 43.6958C52.9542 43.996 52.715 44.4949 52.7474 45.0143L53.7454 44.9521C53.7347 44.779 53.8144 44.6127 53.956 44.5126L53.3792 43.6958ZM55.1266 41.9152C55.2507 42.1384 55.1867 42.4193 54.978 42.5666L55.5549 43.3835C56.1808 42.9415 56.3729 42.0988 56.0005 41.4292L55.1266 41.9152ZM54.1675 38.7325C53.9154 39.1858 53.9154 39.7372 54.1675 40.1906L55.0414 39.7045C54.9574 39.5534 54.9574 39.3696 55.0414 39.2185L54.1675 38.7325ZM54.978 36.3564C55.1867 36.5038 55.2507 36.7847 55.1266 37.0079L56.0005 37.4939C56.3729 36.8243 56.1808 35.9816 55.5549 35.5396L54.978 36.3564ZM52.7474 33.9088C52.715 34.4281 52.9542 34.9271 53.3792 35.2273L53.956 34.4104C53.8144 34.3104 53.7347 34.1441 53.7454 33.971L52.7474 33.9088ZM52.4522 31.415C52.7054 31.4567 52.8859 31.6833 52.87 31.9394L53.8681 32.0015C53.9159 31.2331 53.3743 30.5533 52.6146 30.4282L52.4522 31.415ZM49.3928 30.1804C49.5885 30.6665 50.0236 31.0152 50.5407 31.1003L50.7031 30.1136C50.5307 30.0852 50.3857 29.969 50.3205 29.807L49.3928 30.1804ZM48.0553 28.0726C48.3027 27.9988 48.5656 28.1255 48.662 28.365L49.5896 27.9916C49.3004 27.2731 48.5118 26.893 47.7696 27.1143L48.0553 28.0726ZM33.13 31.9394C33.1141 31.6833 33.2946 31.4567 33.5478 31.415L33.3854 30.4282C32.6257 30.5533 32.0841 31.2331 32.1319 32.0015L33.13 31.9394ZM44.7668 28.293C45.1557 28.6486 45.7026 28.774 46.2076 28.6235L45.9219 27.6652C45.7535 27.7154 45.5712 27.6735 45.4416 27.555L44.7668 28.293ZM32.6208 35.2273C33.0458 34.9271 33.285 34.4281 33.2526 33.9088L32.2546 33.971C32.2653 34.1441 32.1856 34.3104 32.044 34.4104L32.6208 35.2273ZM44.0122 26.248C43.4391 25.724 42.5609 25.724 41.9878 26.248L42.6626 26.986C42.8536 26.8113 43.1464 26.8113 43.3374 26.986L44.0122 26.248Z" fill="#9672FF"/>
</g>
<defs>
<filter id="filter0_d_2966_2297" x="0.810547" y="0.85498" width="84.3789" height="93.645" filterUnits="userSpaceOnUse" color-interpolation-filters="sRGB">
<feFlood flood-opacity="0" result="BackgroundImageFix"/>
<feColorMatrix in="SourceAlpha" type="matrix" values="0 0 0 0 0 0 0 0 0 0 0 0 0 0 0 0 0 0 127 0" result="hardAlpha"/>
<feOffset dy="4"/>
<feGaussianBlur stdDeviation="14.5"/>
<feComposite in2="hardAlpha" operator="out"/>
<feColorMatrix type="matrix" values="0 0 0 0 0.588235 0 0 0 0 0.447059 0 0 0 0 1 0 0 0 0.39 0"/>
<feBlend mode="normal" in2="BackgroundImageFix" result="effect1_dropShadow_2966_2297"/>
<feBlend mode="normal" in="SourceGraphic" in2="effect1_dropShadow_2966_2297" result="shape"/>
</filter>
</defs>
</svg>
