<svg width="51" height="89" viewBox="0 0 51 89" fill="none" xmlns="http://www.w3.org/2000/svg">
<path d="M42.6667 2.12245C42.6667 2.74236 43.1641 3.2449 43.7778 3.2449C44.3914 3.2449 44.8889 2.74236 44.8889 2.12245C44.8889 1.50254 44.3914 1 43.7778 1C43.1641 1 42.6667 1.50254 42.6667 2.12245Z" fill="url(#paint0_linear_0_1)"/>
<path d="M33.7778 2.12245C33.7778 2.74236 34.2752 3.2449 34.8889 3.2449C35.5025 3.2449 36 2.74236 36 2.12245C36 1.50254 35.5025 1 34.8889 1C34.2752 1 33.7778 1.50254 33.7778 2.12245Z" fill="url(#paint1_linear_0_1)"/>
<path d="M24.8889 2.12245C24.8889 2.74236 25.3864 3.2449 26 3.2449C26.6136 3.2449 27.1111 2.74236 27.1111 2.12245C27.1111 1.50254 26.6136 1 26 1C25.3864 1 24.8889 1.50254 24.8889 2.12245Z" fill="url(#paint2_linear_0_1)"/>
<path d="M16 2.12245C16 2.74236 16.4975 3.2449 17.1111 3.2449C17.7248 3.2449 18.2222 2.74236 18.2222 2.12245C18.2222 1.50254 17.7248 1 17.1111 1C16.4975 1 16 1.50254 16 2.12245Z" fill="url(#paint3_linear_0_1)"/>
<path d="M7.11111 2.12245C7.11111 2.74236 7.60857 3.2449 8.22222 3.2449C8.83587 3.2449 9.33333 2.74236 9.33333 2.12245C9.33333 1.50254 8.83587 1 8.22222 1C7.60857 1 7.11111 1.50254 7.11111 2.12245Z" fill="url(#paint4_linear_0_1)"/>
<path fill-rule="evenodd" clip-rule="evenodd" d="M6 11.102H46V44.7755L26 56L6 44.7755V11.102ZM22.6667 25.6939L26 17.8367L29.3333 25.6939L38.2222 26.8163L32.6667 32.4286V41.4082L26 36.9184L18.2222 41.4082L19.3333 32.4286L13.7778 26.8163L22.6667 25.6939Z" fill="url(#paint5_linear_0_1)"/>
<path d="M42.6667 2.12245C42.6667 2.74236 43.1641 3.2449 43.7778 3.2449M42.6667 2.12245C42.6667 1.50254 43.1641 1 43.7778 1M42.6667 2.12245V2.13379C42.6667 2.74744 43.1641 3.2449 43.7778 3.2449V3.2449M42.6667 2.12245V2.11111C42.6667 1.49746 43.1641 1 43.7778 1V1M43.7778 3.2449C44.3914 3.2449 44.8889 2.74236 44.8889 2.12245M43.7778 3.2449V3.2449C44.3914 3.2449 44.8889 2.74744 44.8889 2.13379V2.12245M44.8889 2.12245C44.8889 1.50254 44.3914 1 43.7778 1M44.8889 2.12245V2.11111C44.8889 1.49746 44.3914 1 43.7778 1V1M33.7778 2.12245C33.7778 2.74236 34.2752 3.2449 34.8889 3.2449M33.7778 2.12245C33.7778 1.50254 34.2752 1 34.8889 1M33.7778 2.12245V2.13379C33.7778 2.74744 34.2752 3.2449 34.8889 3.2449V3.2449M33.7778 2.12245V2.11111C33.7778 1.49746 34.2752 1 34.8889 1V1M34.8889 3.2449C35.5025 3.2449 36 2.74236 36 2.12245M34.8889 3.2449V3.2449C35.5025 3.2449 36 2.74744 36 2.13379V2.12245M36 2.12245C36 1.50254 35.5025 1 34.8889 1M36 2.12245V2.11111C36 1.49746 35.5025 1 34.8889 1V1M24.8889 2.12245C24.8889 2.74236 25.3864 3.2449 26 3.2449M24.8889 2.12245C24.8889 1.50254 25.3864 1 26 1M24.8889 2.12245V2.13379C24.8889 2.74744 25.3864 3.2449 26 3.2449V3.2449M24.8889 2.12245V2.11111C24.8889 1.49746 25.3864 1 26 1V1M26 3.2449C26.6137 3.2449 27.1111 2.74236 27.1111 2.12245M26 3.2449V3.2449C26.6137 3.2449 27.1111 2.74744 27.1111 2.13379V2.12245M27.1111 2.12245C27.1111 1.50254 26.6137 1 26 1M27.1111 2.12245V2.11111C27.1111 1.49746 26.6137 1 26 1V1M16 2.12245C16 2.74236 16.4975 3.2449 17.1111 3.2449M16 2.12245C16 1.50254 16.4975 1 17.1111 1M16 2.12245V2.13379C16 2.74744 16.4975 3.2449 17.1111 3.2449V3.2449M16 2.12245V2.11111C16 1.49746 16.4975 1 17.1111 1V1M17.1111 3.2449C17.7248 3.2449 18.2222 2.74236 18.2222 2.12245M17.1111 3.2449V3.2449C17.7248 3.2449 18.2222 2.74744 18.2222 2.13379V2.12245M18.2222 2.12245C18.2222 1.50254 17.7248 1 17.1111 1M18.2222 2.12245V2.11111C18.2222 1.49746 17.7248 1 17.1111 1V1M7.11111 2.12245C7.11111 2.74236 7.60857 3.2449 8.22222 3.2449M7.11111 2.12245C7.11111 1.50254 7.60857 1 8.22222 1M7.11111 2.12245V2.13379C7.11111 2.74744 7.60857 3.2449 8.22222 3.2449V3.2449M7.11111 2.12245V2.11111C7.11111 1.49746 7.60857 1 8.22222 1V1M8.22222 3.2449C8.83587 3.2449 9.33333 2.74236 9.33333 2.12245M8.22222 3.2449V3.2449C8.83587 3.2449 9.33333 2.74744 9.33333 2.13379V2.12245M9.33333 2.12245C9.33333 1.50254 8.83587 1 8.22222 1M9.33333 2.12245V2.11111C9.33333 1.49746 8.83587 1 8.22222 1V1M6 11.102H46V44.7755L26 56L6 44.7755V11.102ZM26 17.8367L22.6667 25.6939L13.7778 26.8163L19.3333 32.4286L18.2222 41.4082L26 36.9184L32.6667 41.4082V32.4286L38.2222 26.8163L29.3333 25.6939L26 17.8367Z" stroke="url(#paint6_linear_0_1)" stroke-linejoin="round"/>
<path d="M0.218989 79.6V77.794H3.59299V88H1.57699V79.6H0.218989ZM16.2152 81.252C16.2152 81.7747 16.0892 82.2647 15.8372 82.722C15.5945 83.1793 15.2072 83.548 14.6752 83.828C14.1525 84.108 13.4899 84.248 12.6872 84.248H11.0492V88H9.08919V78.228H12.6872C13.4432 78.228 14.0872 78.3587 14.6192 78.62C15.1512 78.8813 15.5479 79.2407 15.8092 79.698C16.0799 80.1553 16.2152 80.6733 16.2152 81.252ZM12.6032 82.666C13.1445 82.666 13.5459 82.5447 13.8072 82.302C14.0685 82.05 14.1992 81.7 14.1992 81.252C14.1992 80.3 13.6672 79.824 12.6032 79.824H11.0492V82.666H12.6032ZM19.5668 86.446H22.7868V88H17.6068V78.228H19.5668V86.446ZM30.0246 86.138H26.1326L25.4886 88H23.4306L26.9446 78.214H29.2266L32.7406 88H30.6686L30.0246 86.138ZM29.4926 84.57L28.0786 80.482L26.6646 84.57H29.4926ZM33.578 83.1C33.578 82.1387 33.7927 81.28 34.222 80.524C34.6607 79.7587 35.2534 79.166 36 78.746C36.756 78.3167 37.6007 78.102 38.534 78.102C39.626 78.102 40.5827 78.382 41.404 78.942C42.2254 79.502 42.7994 80.2767 43.126 81.266H40.872C40.648 80.7993 40.3307 80.4493 39.92 80.216C39.5187 79.9827 39.052 79.866 38.52 79.866C37.9507 79.866 37.442 80.0013 36.994 80.272C36.5554 80.5333 36.21 80.9067 35.958 81.392C35.7154 81.8773 35.594 82.4467 35.594 83.1C35.594 83.744 35.7154 84.3133 35.958 84.808C36.21 85.2933 36.5554 85.6713 36.994 85.942C37.442 86.2033 37.9507 86.334 38.52 86.334C39.052 86.334 39.5187 86.2173 39.92 85.984C40.3307 85.7413 40.648 85.3867 40.872 84.92H43.126C42.7994 85.9187 42.2254 86.698 41.404 87.258C40.592 87.8087 39.6354 88.084 38.534 88.084C37.6007 88.084 36.756 87.874 36 87.454C35.2534 87.0247 34.6607 86.432 34.222 85.676C33.7927 84.92 33.578 84.0613 33.578 83.1ZM46.7601 79.81V82.26H50.0501V83.814H46.7601V86.404H50.4701V88H44.8001V78.214H50.4701V79.81H46.7601Z" fill="url(#paint7_linear_0_1)"/>
<defs>
<linearGradient id="paint0_linear_0_1" x1="26" y1="1" x2="26" y2="56" gradientUnits="userSpaceOnUse">
<stop stop-color="#FF9B3F"/>
<stop offset="1" stop-color="#FFC93F" stop-opacity="0.98"/>
</linearGradient>
<linearGradient id="paint1_linear_0_1" x1="26" y1="1" x2="26" y2="56" gradientUnits="userSpaceOnUse">
<stop stop-color="#FF9B3F"/>
<stop offset="1" stop-color="#FFC93F" stop-opacity="0.98"/>
</linearGradient>
<linearGradient id="paint2_linear_0_1" x1="26" y1="1" x2="26" y2="56" gradientUnits="userSpaceOnUse">
<stop stop-color="#FF9B3F"/>
<stop offset="1" stop-color="#FFC93F" stop-opacity="0.98"/>
</linearGradient>
<linearGradient id="paint3_linear_0_1" x1="26" y1="1" x2="26" y2="56" gradientUnits="userSpaceOnUse">
<stop stop-color="#FF9B3F"/>
<stop offset="1" stop-color="#FFC93F" stop-opacity="0.98"/>
</linearGradient>
<linearGradient id="paint4_linear_0_1" x1="26" y1="1" x2="26" y2="56" gradientUnits="userSpaceOnUse">
<stop stop-color="#FF9B3F"/>
<stop offset="1" stop-color="#FFC93F" stop-opacity="0.98"/>
</linearGradient>
<linearGradient id="paint5_linear_0_1" x1="26" y1="1" x2="26" y2="56" gradientUnits="userSpaceOnUse">
<stop stop-color="#FF9B3F"/>
<stop offset="1" stop-color="#FFC93F" stop-opacity="0.98"/>
</linearGradient>
<linearGradient id="paint6_linear_0_1" x1="58" y1="63" x2="6" y2="6.99999" gradientUnits="userSpaceOnUse">
<stop stop-color="#FF9B3F"/>
<stop offset="1" stop-color="#FFC93F" stop-opacity="0.98"/>
</linearGradient>
<linearGradient id="paint7_linear_0_1" x1="-54" y1="58" x2="69" y2="94" gradientUnits="userSpaceOnUse">
<stop stop-color="#FF9B3F"/>
<stop offset="1" stop-color="#FFC93F" stop-opacity="0.98"/>
</linearGradient>
</defs>
</svg>
