<svg width="54" height="89" viewBox="0 0 54 89" fill="none" xmlns="http://www.w3.org/2000/svg">
<path d="M44.6667 2.12245C44.6667 2.74236 45.1641 3.2449 45.7778 3.2449C46.3914 3.2449 46.8889 2.74236 46.8889 2.12245C46.8889 1.50254 46.3914 1 45.7778 1C45.1641 1 44.6667 1.50254 44.6667 2.12245Z" fill="url(#paint0_linear_0_1)"/>
<path d="M35.7778 2.12245C35.7778 2.74236 36.2752 3.2449 36.8889 3.2449C37.5025 3.2449 38 2.74236 38 2.12245C38 1.50254 37.5025 1 36.8889 1C36.2752 1 35.7778 1.50254 35.7778 2.12245Z" fill="url(#paint1_linear_0_1)"/>
<path d="M26.8889 2.12245C26.8889 2.74236 27.3864 3.2449 28 3.2449C28.6136 3.2449 29.1111 2.74236 29.1111 2.12245C29.1111 1.50254 28.6136 1 28 1C27.3864 1 26.8889 1.50254 26.8889 2.12245Z" fill="url(#paint2_linear_0_1)"/>
<path d="M18 2.12245C18 2.74236 18.4975 3.2449 19.1111 3.2449C19.7248 3.2449 20.2222 2.74236 20.2222 2.12245C20.2222 1.50254 19.7248 1 19.1111 1C18.4975 1 18 1.50254 18 2.12245Z" fill="url(#paint3_linear_0_1)"/>
<path d="M9.11111 2.12245C9.11111 2.74236 9.60857 3.2449 10.2222 3.2449C10.8359 3.2449 11.3333 2.74236 11.3333 2.12245C11.3333 1.50254 10.8359 1 10.2222 1C9.60857 1 9.11111 1.50254 9.11111 2.12245Z" fill="url(#paint4_linear_0_1)"/>
<path fill-rule="evenodd" clip-rule="evenodd" d="M8 11.102H48V44.7755L28 56L8 44.7755V11.102ZM24.6667 25.6939L28 17.8367L31.3333 25.6939L40.2222 26.8163L34.6667 32.4286V41.4082L28 36.9184L20.2222 41.4082L21.3333 32.4286L15.7778 26.8163L24.6667 25.6939Z" fill="url(#paint5_linear_0_1)"/>
<path d="M44.6667 2.12245C44.6667 2.74236 45.1641 3.2449 45.7778 3.2449M44.6667 2.12245C44.6667 1.50254 45.1641 1 45.7778 1M44.6667 2.12245V2.13379C44.6667 2.74744 45.1641 3.2449 45.7778 3.2449V3.2449M44.6667 2.12245V2.11111C44.6667 1.49746 45.1641 1 45.7778 1V1M45.7778 3.2449C46.3914 3.2449 46.8889 2.74236 46.8889 2.12245M45.7778 3.2449V3.2449C46.3914 3.2449 46.8889 2.74744 46.8889 2.13379V2.12245M46.8889 2.12245C46.8889 1.50254 46.3914 1 45.7778 1M46.8889 2.12245V2.11111C46.8889 1.49746 46.3914 1 45.7778 1V1M35.7778 2.12245C35.7778 2.74236 36.2752 3.2449 36.8889 3.2449M35.7778 2.12245C35.7778 1.50254 36.2752 1 36.8889 1M35.7778 2.12245V2.13379C35.7778 2.74744 36.2752 3.2449 36.8889 3.2449V3.2449M35.7778 2.12245V2.11111C35.7778 1.49746 36.2752 1 36.8889 1V1M36.8889 3.2449C37.5025 3.2449 38 2.74236 38 2.12245M36.8889 3.2449V3.2449C37.5025 3.2449 38 2.74744 38 2.13379V2.12245M38 2.12245C38 1.50254 37.5025 1 36.8889 1M38 2.12245V2.11111C38 1.49746 37.5025 1 36.8889 1V1M26.8889 2.12245C26.8889 2.74236 27.3864 3.2449 28 3.2449M26.8889 2.12245C26.8889 1.50254 27.3864 1 28 1M26.8889 2.12245V2.13379C26.8889 2.74744 27.3864 3.2449 28 3.2449V3.2449M26.8889 2.12245V2.11111C26.8889 1.49746 27.3864 1 28 1V1M28 3.2449C28.6137 3.2449 29.1111 2.74236 29.1111 2.12245M28 3.2449V3.2449C28.6137 3.2449 29.1111 2.74744 29.1111 2.13379V2.12245M29.1111 2.12245C29.1111 1.50254 28.6137 1 28 1M29.1111 2.12245V2.11111C29.1111 1.49746 28.6137 1 28 1V1M18 2.12245C18 2.74236 18.4975 3.2449 19.1111 3.2449M18 2.12245C18 1.50254 18.4975 1 19.1111 1M18 2.12245V2.13379C18 2.74744 18.4975 3.2449 19.1111 3.2449V3.2449M18 2.12245V2.11111C18 1.49746 18.4975 1 19.1111 1V1M19.1111 3.2449C19.7248 3.2449 20.2222 2.74236 20.2222 2.12245M19.1111 3.2449V3.2449C19.7248 3.2449 20.2222 2.74744 20.2222 2.13379V2.12245M20.2222 2.12245C20.2222 1.50254 19.7248 1 19.1111 1M20.2222 2.12245V2.11111C20.2222 1.49746 19.7248 1 19.1111 1V1M9.11111 2.12245C9.11111 2.74236 9.60857 3.2449 10.2222 3.2449M9.11111 2.12245C9.11111 1.50254 9.60857 1 10.2222 1M9.11111 2.12245V2.13379C9.11111 2.74744 9.60857 3.2449 10.2222 3.2449V3.2449M9.11111 2.12245V2.11111C9.11111 1.49746 9.60857 1 10.2222 1V1M10.2222 3.2449C10.8359 3.2449 11.3333 2.74236 11.3333 2.12245M10.2222 3.2449V3.2449C10.8359 3.2449 11.3333 2.74744 11.3333 2.13379V2.12245M11.3333 2.12245C11.3333 1.50254 10.8359 1 10.2222 1M11.3333 2.12245V2.11111C11.3333 1.49746 10.8359 1 10.2222 1V1M8 11.102H48V44.7755L28 56L8 44.7755V11.102ZM28 17.8367L24.6667 25.6939L15.7778 26.8163L21.3333 32.4286L20.2222 41.4082L28 36.9184L34.6667 41.4082V32.4286L40.2222 26.8163L31.3333 25.6939L28 17.8367Z" stroke="url(#paint6_linear_0_1)" stroke-linejoin="round"/>
<path d="M1.58959 85.788C2.48559 85.0413 3.19959 84.4207 3.73159 83.926C4.26359 83.422 4.70692 82.8993 5.06159 82.358C5.41626 81.8167 5.59359 81.2847 5.59359 80.762C5.59359 80.286 5.48159 79.9127 5.25759 79.642C5.03359 79.3713 4.68826 79.236 4.22159 79.236C3.75492 79.236 3.39559 79.3947 3.14359 79.712C2.89159 80.02 2.76092 80.4447 2.75159 80.986H0.84759C0.884924 79.866 1.21626 79.0167 1.84159 78.438C2.47626 77.8593 3.27892 77.57 4.24959 77.57C5.31359 77.57 6.13026 77.8547 6.69959 78.424C7.26892 78.984 7.55359 79.726 7.55359 80.65C7.55359 81.378 7.35759 82.0733 6.96559 82.736C6.57359 83.3987 6.12559 83.9773 5.62159 84.472C5.11759 84.9573 4.45959 85.5453 3.64759 86.236H7.77759V87.86H0.86159V86.404L1.58959 85.788ZM19.6986 81.252C19.6986 81.7747 19.5726 82.2647 19.3206 82.722C19.0779 83.1793 18.6906 83.548 18.1586 83.828C17.6359 84.108 16.9733 84.248 16.1706 84.248H14.5326V88H12.5726V78.228H16.1706C16.9266 78.228 17.5706 78.3587 18.1026 78.62C18.6346 78.8813 19.0313 79.2407 19.2926 79.698C19.5633 80.1553 19.6986 80.6733 19.6986 81.252ZM16.0866 82.666C16.6279 82.666 17.0293 82.5447 17.2906 82.302C17.5519 82.05 17.6826 81.7 17.6826 81.252C17.6826 80.3 17.1506 79.824 16.0866 79.824H14.5326V82.666H16.0866ZM23.0502 86.446H26.2702V88H21.0902V78.228H23.0502V86.446ZM33.5079 86.138H29.6159L28.9719 88H26.9139L30.4279 78.214H32.71L36.224 88H34.152L33.5079 86.138ZM32.9759 84.57L31.5619 80.482L30.1479 84.57H32.9759ZM37.0614 83.1C37.0614 82.1387 37.2761 81.28 37.7054 80.524C38.1441 79.7587 38.7368 79.166 39.4834 78.746C40.2394 78.3167 41.0841 78.102 42.0174 78.102C43.1094 78.102 44.0661 78.382 44.8874 78.942C45.7088 79.502 46.2828 80.2767 46.6094 81.266H44.3554C44.1314 80.7993 43.8141 80.4493 43.4034 80.216C43.0021 79.9827 42.5354 79.866 42.0034 79.866C41.4341 79.866 40.9254 80.0013 40.4774 80.272C40.0388 80.5333 39.6934 80.9067 39.4414 81.392C39.1988 81.8773 39.0774 82.4467 39.0774 83.1C39.0774 83.744 39.1988 84.3133 39.4414 84.808C39.6934 85.2933 40.0388 85.6713 40.4774 85.942C40.9254 86.2033 41.4341 86.334 42.0034 86.334C42.5354 86.334 43.0021 86.2173 43.4034 85.984C43.8141 85.7413 44.1314 85.3867 44.3554 84.92H46.6094C46.2828 85.9187 45.7088 86.698 44.8874 87.258C44.0754 87.8087 43.1188 88.084 42.0174 88.084C41.0841 88.084 40.2394 87.874 39.4834 87.454C38.7368 87.0247 38.1441 86.432 37.7054 85.676C37.2761 84.92 37.0614 84.0613 37.0614 83.1ZM50.2435 79.81V82.26H53.5335V83.814H50.2435V86.404H53.9535V88H48.2835V78.214H53.9535V79.81H50.2435Z" fill="url(#paint7_linear_0_1)"/>
<defs>
<linearGradient id="paint0_linear_0_1" x1="44.5" y1="48" x2="8" y2="9.5" gradientUnits="userSpaceOnUse">
<stop stop-color="#EEF6FF"/>
<stop offset="1" stop-color="#889AB0"/>
</linearGradient>
<linearGradient id="paint1_linear_0_1" x1="44.5" y1="48" x2="8" y2="9.5" gradientUnits="userSpaceOnUse">
<stop stop-color="#EEF6FF"/>
<stop offset="1" stop-color="#889AB0"/>
</linearGradient>
<linearGradient id="paint2_linear_0_1" x1="44.5" y1="48" x2="8" y2="9.5" gradientUnits="userSpaceOnUse">
<stop stop-color="#EEF6FF"/>
<stop offset="1" stop-color="#889AB0"/>
</linearGradient>
<linearGradient id="paint3_linear_0_1" x1="44.5" y1="48" x2="8" y2="9.5" gradientUnits="userSpaceOnUse">
<stop stop-color="#EEF6FF"/>
<stop offset="1" stop-color="#889AB0"/>
</linearGradient>
<linearGradient id="paint4_linear_0_1" x1="44.5" y1="48" x2="8" y2="9.5" gradientUnits="userSpaceOnUse">
<stop stop-color="#EEF6FF"/>
<stop offset="1" stop-color="#889AB0"/>
</linearGradient>
<linearGradient id="paint5_linear_0_1" x1="44.5" y1="48" x2="8" y2="9.5" gradientUnits="userSpaceOnUse">
<stop stop-color="#EEF6FF"/>
<stop offset="1" stop-color="#889AB0"/>
</linearGradient>
<linearGradient id="paint6_linear_0_1" x1="-1" y1="6" x2="48" y2="56" gradientUnits="userSpaceOnUse">
<stop stop-color="#EEF6FF"/>
<stop offset="1" stop-color="#EEF6FF" stop-opacity="0"/>
</linearGradient>
<linearGradient id="paint7_linear_0_1" x1="58" y1="88" x2="-3" y2="70" gradientUnits="userSpaceOnUse">
<stop stop-color="#EEF6FF"/>
<stop offset="1" stop-color="#889AB0"/>
</linearGradient>
</defs>
</svg>
