<svg width="55" height="89" viewBox="0 0 55 89" fill="none" xmlns="http://www.w3.org/2000/svg">
<path d="M44.6667 2.12245C44.6667 2.74236 45.1641 3.2449 45.7778 3.2449C46.3914 3.2449 46.8889 2.74236 46.8889 2.12245C46.8889 1.50254 46.3914 1 45.7778 1C45.1641 1 44.6667 1.50254 44.6667 2.12245Z" fill="url(#paint0_linear_0_1)"/>
<path d="M35.7778 2.12245C35.7778 2.74236 36.2752 3.2449 36.8889 3.2449C37.5025 3.2449 38 2.74236 38 2.12245C38 1.50254 37.5025 1 36.8889 1C36.2752 1 35.7778 1.50254 35.7778 2.12245Z" fill="url(#paint1_linear_0_1)"/>
<path d="M26.8889 2.12245C26.8889 2.74236 27.3864 3.2449 28 3.2449C28.6136 3.2449 29.1111 2.74236 29.1111 2.12245C29.1111 1.50254 28.6136 1 28 1C27.3864 1 26.8889 1.50254 26.8889 2.12245Z" fill="url(#paint2_linear_0_1)"/>
<path d="M18 2.12245C18 2.74236 18.4975 3.2449 19.1111 3.2449C19.7248 3.2449 20.2222 2.74236 20.2222 2.12245C20.2222 1.50254 19.7248 1 19.1111 1C18.4975 1 18 1.50254 18 2.12245Z" fill="url(#paint3_linear_0_1)"/>
<path d="M9.11111 2.12245C9.11111 2.74236 9.60857 3.2449 10.2222 3.2449C10.8359 3.2449 11.3333 2.74236 11.3333 2.12245C11.3333 1.50254 10.8359 1 10.2222 1C9.60857 1 9.11111 1.50254 9.11111 2.12245Z" fill="url(#paint4_linear_0_1)"/>
<path fill-rule="evenodd" clip-rule="evenodd" d="M8 11.102H48V44.7755L28 56L8 44.7755V11.102ZM24.6667 25.6939L28 17.8367L31.3333 25.6939L40.2222 26.8163L34.6667 32.4286V41.4082L28 36.9184L20.2222 41.4082L21.3333 32.4286L15.7778 26.8163L24.6667 25.6939Z" fill="url(#paint5_linear_0_1)"/>
<path d="M44.6667 2.12245C44.6667 2.74236 45.1641 3.2449 45.7778 3.2449M44.6667 2.12245C44.6667 1.50254 45.1641 1 45.7778 1M44.6667 2.12245V2.13379C44.6667 2.74744 45.1641 3.2449 45.7778 3.2449V3.2449M44.6667 2.12245V2.11111C44.6667 1.49746 45.1641 1 45.7778 1V1M45.7778 3.2449C46.3914 3.2449 46.8889 2.74236 46.8889 2.12245M45.7778 3.2449V3.2449C46.3914 3.2449 46.8889 2.74744 46.8889 2.13379V2.12245M46.8889 2.12245C46.8889 1.50254 46.3914 1 45.7778 1M46.8889 2.12245V2.11111C46.8889 1.49746 46.3914 1 45.7778 1V1M35.7778 2.12245C35.7778 2.74236 36.2752 3.2449 36.8889 3.2449M35.7778 2.12245C35.7778 1.50254 36.2752 1 36.8889 1M35.7778 2.12245V2.13379C35.7778 2.74744 36.2752 3.2449 36.8889 3.2449V3.2449M35.7778 2.12245V2.11111C35.7778 1.49746 36.2752 1 36.8889 1V1M36.8889 3.2449C37.5025 3.2449 38 2.74236 38 2.12245M36.8889 3.2449V3.2449C37.5025 3.2449 38 2.74744 38 2.13379V2.12245M38 2.12245C38 1.50254 37.5025 1 36.8889 1M38 2.12245V2.11111C38 1.49746 37.5025 1 36.8889 1V1M26.8889 2.12245C26.8889 2.74236 27.3864 3.2449 28 3.2449M26.8889 2.12245C26.8889 1.50254 27.3864 1 28 1M26.8889 2.12245V2.13379C26.8889 2.74744 27.3864 3.2449 28 3.2449V3.2449M26.8889 2.12245V2.11111C26.8889 1.49746 27.3864 1 28 1V1M28 3.2449C28.6137 3.2449 29.1111 2.74236 29.1111 2.12245M28 3.2449V3.2449C28.6137 3.2449 29.1111 2.74744 29.1111 2.13379V2.12245M29.1111 2.12245C29.1111 1.50254 28.6137 1 28 1M29.1111 2.12245V2.11111C29.1111 1.49746 28.6137 1 28 1V1M18 2.12245C18 2.74236 18.4975 3.2449 19.1111 3.2449M18 2.12245C18 1.50254 18.4975 1 19.1111 1M18 2.12245V2.13379C18 2.74744 18.4975 3.2449 19.1111 3.2449V3.2449M18 2.12245V2.11111C18 1.49746 18.4975 1 19.1111 1V1M19.1111 3.2449C19.7248 3.2449 20.2222 2.74236 20.2222 2.12245M19.1111 3.2449V3.2449C19.7248 3.2449 20.2222 2.74744 20.2222 2.13379V2.12245M20.2222 2.12245C20.2222 1.50254 19.7248 1 19.1111 1M20.2222 2.12245V2.11111C20.2222 1.49746 19.7248 1 19.1111 1V1M9.11111 2.12245C9.11111 2.74236 9.60857 3.2449 10.2222 3.2449M9.11111 2.12245C9.11111 1.50254 9.60857 1 10.2222 1M9.11111 2.12245V2.13379C9.11111 2.74744 9.60857 3.2449 10.2222 3.2449V3.2449M9.11111 2.12245V2.11111C9.11111 1.49746 9.60857 1 10.2222 1V1M10.2222 3.2449C10.8359 3.2449 11.3333 2.74236 11.3333 2.12245M10.2222 3.2449V3.2449C10.8359 3.2449 11.3333 2.74744 11.3333 2.13379V2.12245M11.3333 2.12245C11.3333 1.50254 10.8359 1 10.2222 1M11.3333 2.12245V2.11111C11.3333 1.49746 10.8359 1 10.2222 1V1M8 11.102H48V44.7755L28 56L8 44.7755V11.102ZM28 17.8367L24.6667 25.6939L15.7778 26.8163L21.3333 32.4286L20.2222 41.4082L28 36.9184L34.6667 41.4082V32.4286L40.2222 26.8163L31.3333 25.6939L28 17.8367Z" stroke="url(#paint6_linear_0_1)" stroke-linejoin="round"/>
<path d="M0.830692 80.482C0.877359 79.5487 1.20403 78.83 1.81069 78.326C2.42669 77.8127 3.23403 77.556 4.23269 77.556C4.91403 77.556 5.49736 77.6773 5.98269 77.92C6.46803 78.1533 6.83203 78.4753 7.07469 78.886C7.32669 79.2873 7.45269 79.7447 7.45269 80.258C7.45269 80.846 7.29869 81.3453 6.99069 81.756C6.69203 82.1573 6.33269 82.428 5.91269 82.568V82.624C6.45403 82.792 6.87403 83.0907 7.17269 83.52C7.48069 83.9493 7.63469 84.5 7.63469 85.172C7.63469 85.732 7.50403 86.2313 7.24269 86.67C6.99069 87.1087 6.61269 87.454 6.10869 87.706C5.61403 87.9487 5.01669 88.07 4.31669 88.07C3.26203 88.07 2.40336 87.804 1.74069 87.272C1.07803 86.74 0.728025 85.956 0.690692 84.92H2.59469C2.61336 85.3773 2.76736 85.746 3.05669 86.026C3.35536 86.2967 3.76136 86.432 4.27469 86.432C4.75069 86.432 5.11469 86.3013 5.36669 86.04C5.62803 85.7693 5.75869 85.424 5.75869 85.004C5.75869 84.444 5.58136 84.0427 5.22669 83.8C4.87203 83.5573 4.32136 83.436 3.57469 83.436H3.16869V81.826H3.57469C4.90003 81.826 5.56269 81.3827 5.56269 80.496C5.56269 80.0947 5.44136 79.782 5.19869 79.558C4.96536 79.334 4.62469 79.222 4.17669 79.222C3.73803 79.222 3.39736 79.3433 3.15469 79.586C2.92136 79.8193 2.78603 80.118 2.74869 80.482H0.830692ZM19.8695 81.252C19.8695 81.7747 19.7435 82.2647 19.4915 82.722C19.2488 83.1793 18.8615 83.548 18.3295 83.828C17.8068 84.108 17.1442 84.248 16.3415 84.248H14.7035V88H12.7435V78.228H16.3415C17.0975 78.228 17.7415 78.3587 18.2735 78.62C18.8055 78.8813 19.2022 79.2407 19.4635 79.698C19.7342 80.1553 19.8695 80.6733 19.8695 81.252ZM16.2575 82.666C16.7988 82.666 17.2002 82.5447 17.4615 82.302C17.7228 82.05 17.8535 81.7 17.8535 81.252C17.8535 80.3 17.3215 79.824 16.2575 79.824H14.7035V82.666H16.2575ZM23.2211 86.446H26.4411V88H21.2611V78.228H23.2211V86.446ZM33.6788 86.138H29.7868L29.1428 88H27.0848L30.5988 78.214H32.8808L36.3948 88H34.3228L33.6788 86.138ZM33.1468 84.57L31.7328 80.482L30.3188 84.57H33.1468ZM37.2323 83.1C37.2323 82.1387 37.447 81.28 37.8763 80.524C38.315 79.7587 38.9077 79.166 39.6543 78.746C40.4103 78.3167 41.255 78.102 42.1883 78.102C43.2803 78.102 44.237 78.382 45.0583 78.942C45.8797 79.502 46.4537 80.2767 46.7803 81.266H44.5263C44.3023 80.7993 43.985 80.4493 43.5743 80.216C43.173 79.9827 42.7063 79.866 42.1743 79.866C41.605 79.866 41.0963 80.0013 40.6483 80.272C40.2097 80.5333 39.8643 80.9067 39.6123 81.392C39.3697 81.8773 39.2483 82.4467 39.2483 83.1C39.2483 83.744 39.3697 84.3133 39.6123 84.808C39.8643 85.2933 40.2097 85.6713 40.6483 85.942C41.0963 86.2033 41.605 86.334 42.1743 86.334C42.7063 86.334 43.173 86.2173 43.5743 85.984C43.985 85.7413 44.3023 85.3867 44.5263 84.92H46.7803C46.4537 85.9187 45.8797 86.698 45.0583 87.258C44.2463 87.8087 43.2897 88.084 42.1883 88.084C41.255 88.084 40.4103 87.874 39.6543 87.454C38.9077 87.0247 38.315 86.432 37.8763 85.676C37.447 84.92 37.2323 84.0613 37.2323 83.1ZM50.4144 79.81V82.26H53.7044V83.814H50.4144V86.404H54.1244V88H48.4544V78.214H54.1244V79.81H50.4144Z" fill="url(#paint7_linear_0_1)"/>
<defs>
<linearGradient id="paint0_linear_0_1" x1="48" y1="42" x2="8" y2="11" gradientUnits="userSpaceOnUse">
<stop stop-color="#E9975C"/>
<stop offset="1" stop-color="#B4703F"/>
</linearGradient>
<linearGradient id="paint1_linear_0_1" x1="48" y1="42" x2="8" y2="11" gradientUnits="userSpaceOnUse">
<stop stop-color="#E9975C"/>
<stop offset="1" stop-color="#B4703F"/>
</linearGradient>
<linearGradient id="paint2_linear_0_1" x1="48" y1="42" x2="8" y2="11" gradientUnits="userSpaceOnUse">
<stop stop-color="#E9975C"/>
<stop offset="1" stop-color="#B4703F"/>
</linearGradient>
<linearGradient id="paint3_linear_0_1" x1="48" y1="42" x2="8" y2="11" gradientUnits="userSpaceOnUse">
<stop stop-color="#E9975C"/>
<stop offset="1" stop-color="#B4703F"/>
</linearGradient>
<linearGradient id="paint4_linear_0_1" x1="48" y1="42" x2="8" y2="11" gradientUnits="userSpaceOnUse">
<stop stop-color="#E9975C"/>
<stop offset="1" stop-color="#B4703F"/>
</linearGradient>
<linearGradient id="paint5_linear_0_1" x1="48" y1="42" x2="8" y2="11" gradientUnits="userSpaceOnUse">
<stop stop-color="#E9975C"/>
<stop offset="1" stop-color="#B4703F"/>
</linearGradient>
<linearGradient id="paint6_linear_0_1" x1="28" y1="1" x2="28" y2="56" gradientUnits="userSpaceOnUse">
<stop stop-color="#E9975C"/>
<stop offset="1" stop-color="#B4703F"/>
</linearGradient>
<linearGradient id="paint7_linear_0_1" x1="58" y1="94" x2="-7" y2="80" gradientUnits="userSpaceOnUse">
<stop stop-color="#E9975C"/>
<stop offset="1" stop-color="#B4703F"/>
</linearGradient>
</defs>
</svg>
