<svg width="92" height="30" viewBox="0 0 92 30" fill="none" xmlns="http://www.w3.org/2000/svg">
<path fill-rule="evenodd" clip-rule="evenodd" d="M29.5013 0H29.5712C30.3168 0.0159584 30.9333 0.203911 31.3294 0.554995C31.8437 1.0107 31.8473 1.93096 31.8222 2.97712H29.9081V2.04445C29.9081 1.72351 29.9332 1.28022 29.797 1.16851C29.7316 1.12903 29.6569 1.10698 29.5803 1.10449C29.5036 1.102 29.4277 1.11917 29.3597 1.15432C29.1805 1.2678 29.2199 1.86358 29.2199 2.21821V4.5907C29.2199 4.93114 29.1697 5.51096 29.3597 5.63508C29.4243 5.66414 29.4948 5.67798 29.5657 5.67552C29.6366 5.67306 29.706 5.65436 29.7683 5.6209C29.9153 5.51274 29.9081 5.1652 29.9081 4.89745C29.9081 4.5836 29.9081 4.33713 29.9081 4.0357H31.8222C31.7936 4.73432 31.8742 5.29641 31.643 5.80885C31.4393 6.15941 31.1243 6.43365 30.7469 6.58904C29.7002 7.03588 27.9492 6.76636 27.5209 5.89219C27.3291 5.495 27.3417 5.0393 27.2969 4.48785V2.26786C27.2969 1.52137 27.3793 1.02665 27.718 0.652519C28.0944 0.226962 28.7235 0.0336899 29.5013 0Z" fill="white"/>
<path fill-rule="evenodd" clip-rule="evenodd" d="M32.8772 0.101562H35.6354C35.9849 2.28786 36.3702 4.44047 36.7107 6.62854H34.9185L34.7787 5.43166H33.8235C33.7751 5.83062 33.7285 6.23136 33.6819 6.63032H31.8789C32.2063 4.47298 32.5301 2.3115 32.8503 0.145891C32.849 0.136802 32.851 0.127552 32.8559 0.119769C32.8608 0.111985 32.8683 0.106165 32.8772 0.103335V0.101562ZM34.2572 4.3199H34.6371C34.5547 3.43332 34.4131 2.48291 34.3127 1.56441C34.1933 2.48054 34.0786 3.39963 33.9686 4.32167L34.2572 4.3199Z" fill="white"/>
<path fill-rule="evenodd" clip-rule="evenodd" d="M37.0534 0.125H38.9532C38.9854 1.75276 38.9532 3.6518 38.9675 5.3168C39.3259 5.34871 39.7399 5.3168 40.1199 5.32921V6.6378H37.0391V0.167557C37.0391 0.148052 37.0391 0.126773 37.0534 0.125Z" fill="white"/>
<path fill-rule="evenodd" clip-rule="evenodd" d="M40.584 0.125H42.4837V5.3168C42.8422 5.34871 43.2669 5.3168 43.6505 5.32921V6.6378H40.5714V0.167557C40.5697 0.148052 40.5679 0.126773 40.584 0.125Z" fill="white"/>
<path fill-rule="evenodd" clip-rule="evenodd" d="M47.927 1.2942V5.52494C48.09 5.52494 48.3517 5.50189 48.4341 5.38664C48.5524 5.21996 48.5184 4.75894 48.5184 4.43977V2.35277C48.5184 2.03538 48.5632 1.52825 48.4485 1.37754C48.3589 1.26405 48.1277 1.24987 47.9413 1.25342C47.9252 1.25342 47.927 1.27469 47.927 1.2942ZM46.029 0.125689C46.6168 0.145194 47.2728 0.0990918 47.9001 0.125689C48.9754 0.171791 49.8912 0.170017 50.2765 0.89169C50.4361 1.18958 50.445 1.73039 50.445 2.25525V4.8937C50.445 5.61538 50.3841 6.14909 49.9253 6.41152C49.4665 6.67395 48.7478 6.64735 48.0829 6.64735C47.366 6.64735 46.6366 6.65799 46.0003 6.63317V0.168246C45.9991 0.158925 46.0014 0.149487 46.0066 0.141669C46.0119 0.13385 46.0198 0.128176 46.029 0.125689Z" fill="white"/>
<path fill-rule="evenodd" clip-rule="evenodd" d="M50.9376 0.125597H52.823C52.8696 1.69838 52.7603 3.46799 52.823 5.12234C52.832 5.39009 52.8392 5.62238 53.0184 5.66493C53.4826 5.77309 53.3571 4.95567 53.3571 4.55139V0.139782C53.9665 0.107865 54.6368 0.139782 55.2694 0.125597V4.30138C55.2694 4.79963 55.3053 5.36527 55.1565 5.73409C54.9146 6.33518 54.2873 6.69159 53.4969 6.76428C52.3965 6.86535 51.1563 6.48945 50.9663 5.49826C50.8892 5.0993 50.9376 4.64359 50.9233 4.18967C50.8821 2.89704 50.9125 1.43951 50.9233 0.168153C50.9072 0.146875 50.909 0.134462 50.9376 0.125597Z" fill="white"/>
<path fill-rule="evenodd" clip-rule="evenodd" d="M55.694 0.125H59.8717V1.43359H58.7462C58.7121 3.14468 58.7462 4.91784 58.7318 6.65198C58.0938 6.64312 57.4181 6.66971 56.8052 6.63779V1.43359H55.6797V0.167557C55.6797 0.148052 55.6797 0.126773 55.694 0.125Z" fill="white"/>
<path fill-rule="evenodd" clip-rule="evenodd" d="M60.2227 0.125H61.9665L62.5042 1.80595L62.9576 0.125H64.7014L63.3035 4.26886V4.28659V6.69454H61.5328V4.32738C61.0895 2.94195 60.6486 1.55535 60.2101 0.167557C60.2119 0.155145 60.2012 0.128546 60.2227 0.125Z" fill="white"/>
<path fill-rule="evenodd" clip-rule="evenodd" d="M43.6516 2.05605C43.6265 2.38231 43.639 2.88766 43.639 3.23874C43.639 3.35754 43.5888 3.52777 43.7089 3.57387C43.8272 3.56323 43.7931 3.39655 43.7931 3.25293V2.37699C43.7931 2.21741 43.8272 1.99576 43.6946 2.02236C43.685 2.0259 43.6762 2.03135 43.6688 2.03836C43.6614 2.04537 43.6556 2.0538 43.6516 2.06314V2.05605ZM43.596 1.63936C43.7289 1.61084 43.8674 1.62504 43.9916 1.6799C44.1157 1.73476 44.2188 1.82741 44.286 1.94434C44.3667 2.12165 44.3416 2.62168 44.3416 2.90539C44.3416 3.2813 44.3523 3.60579 44.2 3.78133C43.9329 4.0934 43.3039 3.99233 43.1462 3.65721C43.053 3.45507 43.0888 3.03838 43.0888 2.77063C43.0888 2.35394 43.0583 2.0986 43.1605 1.90888C43.2062 1.83325 43.2697 1.76961 43.3455 1.72332C43.4212 1.67703 43.5072 1.64945 43.596 1.6429V1.63936Z" fill="white"/>
<path fill-rule="evenodd" clip-rule="evenodd" d="M45.3826 1.67188V2.13112H45.0439C45.0277 2.27 45.0235 2.41 45.0313 2.54959H45.3396V2.98046H45.0439C45.0116 3.26771 45.0439 3.61702 45.0313 3.92733H44.5098V1.67188H45.3826Z" fill="white"/>
<path fill-rule="evenodd" clip-rule="evenodd" d="M63.9911 5.95312C64.0539 5.95454 64.1154 5.97096 64.1703 6.001C64.2291 6.03323 64.2776 6.08115 64.3101 6.1393C64.3429 6.196 64.3602 6.26017 64.3603 6.32549C64.359 6.38761 64.3424 6.44848 64.3119 6.5028C64.2794 6.56096 64.2309 6.60888 64.1721 6.64111C64.1155 6.67365 64.0512 6.6908 63.9857 6.6908C63.9203 6.6908 63.856 6.67365 63.7993 6.64111C63.7395 6.61033 63.6907 6.56203 63.6596 6.5028C63.6278 6.44891 63.6105 6.38786 63.6094 6.32549C63.6103 6.26028 63.6276 6.19632 63.6596 6.1393C63.6926 6.08091 63.7417 6.03296 63.8011 6.001C63.856 5.97076 63.9176 5.95432 63.9804 5.95312H63.9911ZM63.9911 6.01519C63.9371 6.01572 63.8841 6.02975 63.837 6.05597C63.7874 6.08178 63.7463 6.12118 63.7187 6.16945C63.6921 6.21729 63.678 6.2709 63.6775 6.32549C63.678 6.3795 63.6922 6.43253 63.7187 6.47975C63.746 6.52808 63.7863 6.56797 63.8352 6.59501C63.8827 6.62174 63.9364 6.6358 63.9911 6.6358C64.0458 6.6358 64.0995 6.62174 64.147 6.59501C64.1959 6.56797 64.2362 6.52808 64.2635 6.47975C64.29 6.43253 64.3042 6.3795 64.3048 6.32549C64.3044 6.27065 64.2896 6.21685 64.2617 6.16945C64.2354 6.12085 64.1948 6.08129 64.1452 6.05597C64.0981 6.02996 64.0451 6.01595 63.9911 6.01519ZM63.8262 6.53118H63.8908V6.35386H63.923C63.9414 6.3532 63.9595 6.35815 63.975 6.36804C64.0033 6.39432 64.0264 6.42558 64.0431 6.46024L64.0789 6.52408H64.1578L64.1094 6.44606C64.0926 6.41746 64.0728 6.39071 64.0503 6.36627C64.04 6.35676 64.0277 6.34952 64.0144 6.34499C64.0461 6.34445 64.0763 6.33173 64.0987 6.30953C64.117 6.29208 64.1284 6.26866 64.1307 6.24358C64.133 6.2185 64.1261 6.19344 64.1112 6.17299C64.0991 6.15541 64.0815 6.14232 64.061 6.13576C64.0274 6.1255 63.9922 6.1213 63.9571 6.12335H63.8191V6.52408L63.8262 6.53118ZM63.8908 6.30598H63.9714C63.9981 6.3085 64.025 6.30294 64.0485 6.29002C64.0547 6.28438 64.0596 6.27753 64.063 6.2699C64.0664 6.26227 64.0682 6.25403 64.0682 6.24569C64.0682 6.23445 64.0651 6.22342 64.0592 6.21378C64.0526 6.20344 64.0424 6.19586 64.0305 6.1925C64.0092 6.18864 63.9874 6.18864 63.966 6.1925H63.8908V6.30598Z" fill="white"/>
<path fill-rule="evenodd" clip-rule="evenodd" d="M1.1283 20.2712L1.14084 20.5088L2.43304 29.9154L5.80779 29.9296H6.1967H8.36528L9.28111 17.326C9.30978 16.8579 9.20763 16.7941 9.59654 16.7568L10.5625 29.9314H16.502C16.8461 28.2788 16.9733 26.3017 17.2278 24.6119C17.5038 22.798 18.9215 12.6502 18.9376 11.2973C18.9483 10.283 18.9376 9.25993 18.9376 8.24391L14.6237 8.21199C14.5108 10.3593 14.3119 12.5438 14.1559 14.6911L13.7419 20.3652C13.7133 20.8085 13.8298 20.9787 13.4731 21.0745L12.4551 8.20312H6.46015L6.16802 12.3895C6.15906 12.5828 6.18953 12.9481 6.06407 13.0403C6.16981 13.652 5.69129 19.069 5.59093 20.6205C5.56404 21.0354 5.63752 20.9291 5.41171 21.0656C5.20202 20.945 5.28087 21.3067 5.21456 20.3847C5.19664 20.124 5.17155 19.8528 5.15183 19.5974C5.03534 18.053 4.43494 8.73153 4.29694 8.24923L0.011745 8.20844C0.011745 11.5154 -0.086825 11.1395 0.341516 14.4393C0.590634 16.3845 0.888143 18.3261 1.1283 20.2712Z" fill="white"/>
<path fill-rule="evenodd" clip-rule="evenodd" d="M78.395 29.9556H78.6567H79.3037H80.1711H80.4525L80.9902 29.9644C81.1174 29.8864 81.0529 29.9485 81.0851 29.7871V26.3862V26.1131V8.28763L76.8591 8.27344L76.8268 17.7297C76.4021 17.7048 76.5508 17.7846 76.2336 16.7934L75.0579 13.123C74.7819 12.2914 74.5346 11.5272 74.2693 10.6796C74.0614 10.02 73.7317 8.78765 73.47 8.27344H69.2995L69.2637 29.9627H73.5112V20.5224C73.9665 20.5011 73.9664 20.9976 74.0883 21.3895C74.6582 23.2052 76.5239 28.709 76.825 29.9591L78.395 29.9556Z" fill="white"/>
<path fill-rule="evenodd" clip-rule="evenodd" d="M35.6396 12.1385H36.3565C37.2275 12.1385 37.3566 12.0392 37.7455 12.3761L37.7562 15.7982C37.7562 16.3639 37.9014 17.3941 37.4695 17.5625H35.6576L35.6414 12.83V12.1385H35.6396ZM30.7809 29.87H35.593L35.5823 21.7383C35.6217 21.4369 35.5823 21.6018 35.6844 21.4936L36.1612 21.506L38.1685 27.5667L38.2778 27.9213L38.923 29.8718H43.1419V26.7883L40.5951 19.9652C42.4357 18.8339 42.615 18.2452 42.6167 15.6262C42.6167 13.9293 42.8766 11.0799 42.1472 9.73228C41.2332 8.04779 39.5556 8.21446 37.215 8.21623H30.7773L30.7809 29.87Z" fill="white"/>
<path fill-rule="evenodd" clip-rule="evenodd" d="M61.6348 12.1481C62.4001 12.1481 63.3912 11.9707 63.5095 12.5701V24.1044C63.5095 24.9609 63.6887 26.0319 63.0202 26.0301C61.6993 26.0301 61.3678 26.1843 61.3678 25.2924C61.3678 21.2887 61.3032 16.4178 61.3946 12.3981L61.6348 12.1481ZM58.8443 8.31449C56.0574 9.09468 56.527 12.0523 56.5144 14.3521C56.5144 17.1501 56.5144 19.9488 56.5144 22.748C56.5144 25.3173 55.9893 28.3494 58.0127 29.5587C59.0164 30.1598 60.2638 29.9558 61.814 29.9558C62.6349 29.9558 65.4755 30.064 66.0705 29.9239C66.5276 29.8158 67.0903 29.4044 67.352 29.1632C68.6603 27.9557 68.3449 25.7375 68.3431 23.8438C68.3413 21.9501 68.4488 12.7172 68.318 11.2863C68.1979 9.97771 67.6907 9.15851 66.8 8.64607C66.1154 8.25598 66.024 8.26307 65.1565 8.26485C64.0561 8.27371 59.2512 8.20101 58.8443 8.31449Z" fill="white"/>
<path fill-rule="evenodd" clip-rule="evenodd" d="M23.2285 20.9084C23.2285 19.8711 23.4238 18.5519 23.5188 17.488C23.569 16.9223 23.6174 16.3585 23.6729 15.7928C23.7016 15.502 23.7213 15.2432 23.7428 14.947C23.7733 14.5038 23.6676 14.4151 24.0135 14.3353L24.6981 21.1336C24.5511 21.3251 23.422 21.2311 23.1711 21.1868L23.2285 20.9084ZM19.3859 16.3461C19.3734 16.5021 19.4164 16.7344 19.2677 16.7344C19.3501 17.3018 18.7479 20.5679 18.6225 21.3978C18.4558 22.5184 17.9056 25.1374 17.9575 26.0931C17.893 27.3077 17.9307 28.6393 17.9325 29.8805H22.1334C22.4919 29.8415 22.2768 29.8947 22.4704 29.7564L22.7965 25.7349L25.1031 25.7012L25.4616 29.9249H29.978C30.3973 27.2474 29.2844 21.4545 28.874 18.793L27.657 10.8422C27.5853 10.3812 27.519 9.95561 27.4527 9.50878C27.4187 9.27827 27.3828 9.07259 27.3506 8.83498C27.2627 8.16828 27.3237 8.26758 27.0961 8.21083C26.0763 8.21083 21.2068 8.09203 20.6208 8.26935L19.3859 16.3461Z" fill="white"/>
<path fill-rule="evenodd" clip-rule="evenodd" d="M49.9178 13.3216L49.7475 13.6603L46.1631 21.1767C45.5913 22.4055 44.9874 23.7371 44.3708 24.9145C43.8332 25.9429 43.8242 25.8525 43.8242 27.1593C43.8242 28.0902 43.8242 29.0193 43.8242 29.9485L55.6529 29.9591V25.4376H49.3353L53.0989 17.5151C53.7262 16.1675 54.3535 14.8678 55.0005 13.5415C55.5095 12.4953 55.6582 12.5893 55.6564 11.2169C55.6564 10.3906 55.7389 9.03412 55.6278 8.27344H43.8493L43.8278 12.7879H50.1543L49.9178 13.3216Z" fill="white"/>
<path fill-rule="evenodd" clip-rule="evenodd" d="M82.1348 29.9564H82.9664H83.4843H91.9973V25.4349H86.9666L86.9307 21.5339L86.9666 21.2555H90.7983C91.0313 21.1474 90.8862 21.3282 90.965 21.0658L91.4668 16.7482H86.9325V12.8047H91.9686L91.9991 12.6274V12.372V8.35938H82.1419L82.1348 29.9564Z" fill="white"/>
<path fill-rule="evenodd" clip-rule="evenodd" d="M82.0508 24.9822V29.7183C82.0812 30.0109 82.0508 29.8531 82.135 29.9666V8.3536H91.9922C91.8363 8.14083 90.5585 8.25963 90.2825 8.25963C89.6874 8.25963 89.0853 8.25963 88.4902 8.25963H87.3826H82.0777L82.0508 24.9822Z" fill="white"/>
</svg>
