<svg width="143" height="41" viewBox="0 0 143 41" fill="none" xmlns="http://www.w3.org/2000/svg">
<path d="M0 20.5C0 31.7773 0.0271347 41 0.0633144 41C0.117584 41 7.48918 39.5961 8.39367 39.4102L8.86401 39.3172V24.2653H14.4719V22.8893C14.4719 22.1363 14.499 20.1746 14.5352 18.5197L14.5894 15.5261H8.86401V8.92517H12.1654C13.9834 8.92517 15.4668 8.90658 15.4668 8.87868C15.4668 8.77642 16.1904 0.836735 16.2356 0.436961L16.2899 0H0V20.5ZM135.294 1.19932L128.076 1.81293V38.8524L128.374 38.8989C128.637 38.9454 142.611 39.9866 142.891 39.9773C142.973 39.9773 143 38.9918 143 35.3753V30.7732H136.849V24.0794H142.096V16.0839H136.669V10.7846L136.877 10.7474C136.985 10.7195 137.908 10.6823 138.93 10.6451C139.952 10.6172 141.281 10.5707 141.897 10.5336L143 10.4778V0.557823L142.756 0.56712C142.611 0.576417 139.255 0.855329 135.294 1.19932ZM88.9567 2.48231C89.0471 3.41202 90.0782 17.4227 90.0602 17.4413C90.0511 17.4599 88.7215 14.1036 87.1025 9.98503C85.4925 5.86644 84.1357 2.45442 84.0996 2.38934C84.0453 2.28707 81.5489 2.76122 77.4515 3.65374L77.0626 3.73742V35.7007H85.1126L85.0674 35.0313C84.9769 33.7855 84.6422 23.4844 84.6784 23.0753C84.7056 22.7127 84.9769 23.3449 87.5457 29.7227C89.1014 33.5995 90.4219 36.807 90.4581 36.8628C90.5124 36.9186 91.7696 36.8349 93.9042 36.649C95.7584 36.4816 97.278 36.3329 97.278 36.3236C97.287 36.3143 97.2418 29.6111 97.1785 21.4297C97.1152 13.2483 97.0609 5.52245 97.0609 4.24875L97.0519 1.95238H88.9024L88.9567 2.48231ZM25.2805 2.5195C19.8717 2.89138 16.8959 6.69388 15.9552 14.4104C15.7653 16.0095 15.6839 21.439 15.8195 23.3356C16.2718 29.4902 17.8908 33.488 20.7671 35.524C22.3138 36.6118 24.6383 37.1975 26.9357 37.058C29.5497 36.9093 31.3316 36.1469 32.9325 34.5014C34.244 33.1533 34.9586 31.8889 35.646 29.732C36.6047 26.7197 37.0389 22.22 36.8218 17.5342C36.5776 12.2907 35.8088 9.02744 34.2259 6.52653C32.7154 4.14648 30.3276 2.72404 27.5417 2.54739C27.0985 2.5195 26.6282 2.49161 26.5016 2.47302C26.375 2.46372 25.8323 2.48231 25.2805 2.5195ZM26.5559 9.82698C27.2161 10.5615 27.4965 13.49 27.4965 19.7562C27.4965 27.4728 27.0262 30.6803 25.9951 29.9923C25.5519 29.6855 25.2172 28.1887 25.0544 25.7063C24.9368 23.8934 24.9368 15.5912 25.0544 13.8526C25.2262 11.3982 25.5338 10.0408 25.9951 9.71542C26.2483 9.52948 26.2935 9.53877 26.5559 9.82698ZM37.9886 19.4215V36.3515H46.2828L46.3371 35.1707C46.3732 34.5107 46.4456 32.3723 46.4999 30.4014C46.5541 28.4304 46.6265 26.7011 46.6627 26.5617C46.7079 26.3664 47.0968 27.6215 48.2908 31.861C49.1591 34.9197 49.8917 37.4578 49.9279 37.495C50.0003 37.5787 58.4844 36.8907 58.5748 36.7977C58.602 36.7605 57.6613 33.7204 56.4855 30.0202L54.3509 23.3077L54.8031 22.8986C56.3046 21.5506 57.5437 18.9474 57.8965 16.3721C58.0502 15.2472 57.9507 12.458 57.7156 11.4261C56.8111 7.38186 54.4142 4.23946 51.357 3.06803C50.0274 2.56599 50.1359 2.57528 43.8497 2.5381L37.9886 2.50091V19.4215ZM47.3139 10.515C47.9561 10.8404 48.4807 11.6771 48.7611 12.8299C48.951 13.6016 48.9239 16.0467 48.7159 16.8277C48.3269 18.2966 47.6395 19.1519 46.6084 19.4773L46.4004 19.5331V10.2268L46.6989 10.2918C46.8526 10.3197 47.133 10.422 47.3139 10.515ZM58.1588 6.9263V11.2494H62.7717V36.1655H71.4548V12.737H76.1581V4.0907L75.9591 4.05351C75.7692 4.00703 58.5206 2.59388 58.2763 2.60317C58.1859 2.60317 58.1588 3.53288 58.1588 6.9263ZM98.9513 20.407V37.2812H107.906V3.53288H98.9513V20.407ZM118.126 4.70431C113.224 4.97392 109.145 5.19705 109.064 5.19705C108.91 5.20635 108.901 5.47596 108.901 9.57596V13.9456H113.514V38.3968H122.287V12.9229H127.171V8.55329C127.171 6.14535 127.144 4.19297 127.108 4.19297C127.063 4.20227 123.029 4.4254 118.126 4.70431Z" fill="white"/>
</svg>
