<svg width="60" height="35" viewBox="0 0 60 35" fill="none" xmlns="http://www.w3.org/2000/svg">
<g clip-path="url(#clip0_998_3682)">
<path d="M3.91239 0.12463C3.48972 0.253083 3.17439 0.42886 2.93956 0.719569C2.60411 1.12521 2.59069 1.18606 2.61753 2.39621C2.63094 3.09256 2.63094 4.32301 2.61753 5.15457C2.60411 6.64191 2.60411 6.64191 2.32903 6.55403C1.77888 6.36473 0.463886 6.45262 0.242484 6.696C0.0546277 6.89882 0.0546277 6.89882 0.269321 6.82445C0.43034 6.77713 0.484014 6.79741 0.443759 6.89882C0.416922 6.98671 0.316285 7.04755 0.242484 7.02727C0.155265 7.01375 0.101592 7.24361 0.101592 7.65601C0.101592 8.02109 0.0613368 8.52814 0.027791 8.76476C-0.019173 9.11632 0.0277911 9.27181 0.289448 9.549C0.59136 9.87351 0.691998 9.90056 1.59102 9.90056C2.42967 9.90056 2.57727 9.94112 2.63094 10.1169C2.70474 10.4076 2.61753 24.7943 2.54372 24.9971C2.50347 25.1121 2.22169 25.1594 1.67824 25.1594C1.1348 25.1594 0.738962 25.2337 0.490723 25.3757C0.11501 25.6056 0.101592 25.6259 0.0881734 26.6129C0.0613368 28.6208 0.11501 28.6952 1.69166 28.6952H2.745L2.70474 31.1155C2.65778 34.5229 2.75171 34.6716 5.18042 34.8069C8.78324 34.9962 19.33 35.0705 21.061 34.9218C21.6648 34.8745 22.2016 34.8609 22.7852 34.8745C23.5971 34.888 23.7983 34.8745 23.9459 34.7325C24.0734 34.6311 24.1204 34.6311 24.1204 34.7325C24.1204 34.8069 24.1808 34.8745 24.2478 34.8745C24.3216 34.8745 24.3753 34.7595 24.3753 34.6108C24.3753 34.4688 24.3284 34.3945 24.2478 34.435C24.1875 34.4756 24.1204 34.4485 24.1204 34.3742C24.1204 34.1443 24.4223 34.2998 24.5565 34.604C24.6839 34.8812 24.7175 34.8812 27.4951 34.8812C29.0449 34.8812 31.1717 34.9218 32.225 34.9556C35.063 35.0705 39.5112 34.9083 39.5112 34.6784C39.5112 34.577 39.5716 34.5026 39.6521 34.5026C39.7259 34.5026 39.7661 34.5905 39.7125 34.6919C39.6655 34.8542 39.7997 34.8812 40.6115 34.8812C41.1348 34.8947 44.0264 34.9083 47.0456 34.9218C50.0513 34.9353 52.4733 34.9083 52.4397 34.8474C52.4129 34.8001 52.48 34.7595 52.5873 34.7595C52.7148 34.7595 52.7483 34.8204 52.7014 34.9083C52.5538 35.1449 55.8278 34.9488 56.378 34.6716C57.2904 34.2187 57.3441 34.0294 57.3508 31.2913C57.3642 29.9392 57.3978 28.7561 57.4515 28.6411C57.4984 28.4924 57.5991 28.4653 57.8003 28.5262C58.1626 28.6546 59.5246 28.587 59.7795 28.4518C59.9406 28.3504 59.9271 28.3369 59.7393 28.3234C59.5984 28.3234 59.5246 28.2625 59.5648 28.1611C59.5917 28.0868 59.6789 28.0191 59.7393 28.0327C59.9003 28.0732 60.0278 26.0518 59.8869 25.8016C59.585 25.2608 59.538 25.2337 58.3974 25.1729L57.2569 25.1121L57.2301 17.5063L57.1898 9.91408H58.3035C59.33 9.91408 59.4172 9.88704 59.7192 9.56252C59.9808 9.28534 60.0345 9.1366 59.9808 8.77829C59.9406 8.54166 59.907 8.03461 59.907 7.68306C59.907 7.25714 59.86 7.02727 59.7661 7.05432C59.6923 7.06784 59.5917 7.00699 59.5648 6.91234C59.5246 6.81093 59.5783 6.78389 59.7393 6.83797C59.9406 6.91234 59.9406 6.89882 59.7795 6.72304C59.5783 6.5067 58.3438 6.40529 57.7802 6.56079C57.2166 6.70952 57.1697 6.57431 57.0892 4.30272C56.9483 0.793936 56.6866 0.293647 54.9758 0.340972C54.4726 0.354493 54.003 0.32745 53.9224 0.293647C53.7883 0.171955 51.6615 0.0232204 50.588 0.0232204C50.172 0.0367417 49.4474 0.0367417 48.9644 0.0367417C48.488 0.0367417 46.0123 0.0637844 43.4562 0.0773057C40.9134 0.0908271 38.3505 0.11787 37.7601 0.138152C37.1697 0.158434 36.4451 0.185476 36.1365 0.178716C31.279 0.104348 27.2535 0.0773057 27.0389 0.131391C26.8778 0.171955 26.7638 0.246322 26.7906 0.293647C26.804 0.340972 26.7638 0.395057 26.69 0.408578C26.6296 0.435621 26.5625 0.368014 26.5625 0.280126C26.5625 0.165194 25.9587 0.131391 23.9996 0.131391C22.007 0.131391 21.4501 0.171955 21.4568 0.280126C21.4837 0.368014 21.4099 0.442382 21.2958 0.442382C21.1952 0.442382 21.1348 0.395057 21.1683 0.32745C21.3159 0.0975877 20.5041 0.0637844 14.8014 0.0637844C11.6346 0.0637844 8.03181 0.0367417 6.79062 0.0164597C5.14688 -0.0241043 4.36191 0.00969904 3.91239 0.12463ZM29.3468 3.53877C46.4753 3.56581 52.1445 3.52525 52.1445 3.42384C52.1445 3.30891 52.1848 3.32243 52.2452 3.42384C52.2921 3.51173 52.6209 3.59961 52.9563 3.61314L53.5803 3.6537L53.5937 4.28244C53.6205 5.28978 53.7816 15.4781 53.7681 15.6944C53.7279 16.7694 53.7681 24.8754 53.8285 27.7014C53.8889 30.5274 53.8755 31.3319 53.7547 31.4062C53.6675 31.4536 53.1911 31.4806 52.7148 31.4671C51.7889 31.4265 48.4075 31.4265 35.4454 31.44C28.7229 31.4536 27.8507 31.4806 27.911 31.6429C27.958 31.7713 27.8976 31.8322 27.7366 31.8322C27.5756 31.8322 27.5085 31.7713 27.5622 31.6429C27.6226 31.4806 26.8376 31.4671 21.269 31.4671C17.7802 31.4806 13.8889 31.5144 12.6209 31.555C11.3663 31.6023 10.3465 31.6023 10.3465 31.5415C10.3465 31.3927 9.91038 31.44 9.74265 31.6023C9.62859 31.7172 9.55479 31.7308 9.49441 31.6293C9.44745 31.5279 8.84362 31.4806 7.85738 31.4671C7.00531 31.4536 6.25389 31.4198 6.20692 31.3792C6.14654 31.3386 6.09287 30.8654 6.09287 30.2975C6.09287 29.4524 6.06603 29.3037 5.90501 29.3645C5.77754 29.4118 5.71715 29.351 5.71715 29.1887C5.71715 29.0265 5.77754 28.9589 5.90501 29.013C6.06603 29.0738 6.09287 28.5194 6.10629 24.5104C6.15325 9.42731 6.15325 9.60309 5.97881 9.54224C5.87817 9.50168 5.85134 9.45435 5.93856 9.40027C6.12641 9.28534 6.15325 7.76419 5.97881 7.20305C5.89159 6.95291 5.86476 6.67572 5.93185 6.58783C5.97881 6.49994 6.03249 5.79007 6.05932 5.03964C6.07274 4.26892 6.08616 3.57933 6.08616 3.47792C6.09958 3.36299 6.17338 3.33595 6.32098 3.41708C6.43503 3.4644 16.8007 3.52525 29.3468 3.53877Z" fill="white"/>
<path d="M45.8039 6.71758L43.1403 6.74463L42.6506 7.22463C42.2346 7.63027 42.1474 7.79253 42.087 8.38747C41.9461 9.58411 41.9461 11.2608 42.0601 13.938C42.1205 15.3645 42.1608 16.7504 42.1339 17.0276C42.1071 17.3048 42.087 19.6237 42.087 22.1995L42.0736 26.8644L42.3755 27.3579C42.5365 27.6216 42.8518 27.9123 43.0732 28.0137C43.5764 28.23 48.6016 28.2774 49.2658 28.0745C49.8763 27.8852 50.3661 27.2565 50.4399 26.5602C50.5674 25.3365 50.5137 16.0203 50.3795 15.6687L50.2386 15.3307H48.5211C47.3604 15.3307 46.7566 15.378 46.6559 15.4794C46.5553 15.5808 46.5083 16.0744 46.5083 16.8383V18.0485L46.884 18.2648L47.2597 18.4947L47.2732 19.9077C47.2732 20.6919 47.2732 21.9494 47.2597 22.7336C47.2463 23.5787 47.3 24.2345 47.3872 24.3697C47.4879 24.532 47.5013 24.6942 47.4006 24.9376C47.2732 25.2756 47.2597 25.2756 46.3272 25.2283C45.2604 25.181 45.0658 25.0999 45.2604 24.8497C45.4013 24.6739 45.4617 15.858 45.3476 11.7137L45.2873 9.68552L46.1863 9.63819C47.5281 9.57735 47.5147 9.56382 47.5147 10.4698C47.5147 10.9092 47.5751 11.3148 47.6623 11.4027C47.7764 11.5177 47.7764 11.5515 47.6623 11.5515C47.3872 11.5515 47.5013 11.903 47.8032 11.9706C48.2527 12.0585 50.0172 11.9841 50.1447 11.8557C50.1917 11.7948 50.2722 10.8213 50.3057 9.68552L50.3527 7.61675L50.0038 7.2652C49.7019 6.96097 49.4402 6.85956 48.6016 6.72434C48.5211 6.6973 47.253 6.6973 45.8039 6.71758ZM10.044 6.96097C9.92998 7.0759 9.89644 7.79253 9.92998 9.54354C9.97024 12.3695 9.95682 12.1532 10.1044 11.9165C10.2051 11.7678 10.2319 11.8016 10.2319 12.0653C10.2319 12.2411 10.1715 12.4168 10.0843 12.4439C9.97024 12.4844 9.93669 13.0253 9.93669 14.3233C9.92327 15.8986 9.89644 16.1893 9.70858 16.3786C9.52072 16.5544 9.48047 16.8315 9.48047 17.9944C9.48047 18.7651 9.52072 19.3533 9.56769 19.3195C9.68174 19.2045 10.1044 19.5967 10.1044 19.8265C10.1044 19.9144 10.0642 19.9888 10.0172 19.9888C9.95682 19.9888 9.90315 21.7195 9.87631 23.8356C9.86289 25.9517 9.90315 27.6824 9.95011 27.6824C10.0105 27.6824 10.1245 27.8244 10.1983 28.0002C10.3392 28.3044 10.3862 28.3179 11.5871 28.3179C13.4389 28.3179 13.3382 28.5478 13.3047 23.9573C13.2779 21.9494 13.2577 20.2524 13.2309 20.1848C13.09 19.644 13.1571 19.6169 14.935 19.6169C16.8605 19.6169 17.5851 19.475 18.0145 19.022L18.303 18.7043L18.3433 13.2349C18.3701 9.5503 18.3298 7.67084 18.2426 7.50858C17.9273 6.92716 17.5918 6.87984 13.7743 6.83927C11.1309 6.81899 10.138 6.84604 10.044 6.96097ZM14.982 9.98299C14.9954 10.1114 14.9954 11.4568 15.0088 12.9847C15.0088 14.5126 15.0491 15.6552 15.0692 15.5335C15.1698 15.1549 15.3577 15.3036 15.3577 15.7701C15.3577 16.1352 15.3174 16.2096 15.1564 16.1487C15.0155 16.1014 14.982 16.1352 15.0289 16.2975C15.0893 16.4868 15.0155 16.5138 14.2641 16.4732C13.7877 16.4462 13.3651 16.3448 13.2644 16.2569C13.0632 16.0541 13.0497 15.689 13.2376 15.689C13.3248 15.689 13.3517 14.8033 13.298 12.8022C13.2711 11.2134 13.2711 9.87482 13.3114 9.84101C13.3584 9.80045 13.7475 9.76665 14.1903 9.76665C14.8612 9.77341 14.982 9.80721 14.982 9.98299ZM20.7519 6.9204C20.5372 7.17055 20.611 9.96947 20.8391 9.92214C20.9129 9.90862 20.9867 9.98299 20.9867 10.0844C20.9867 10.1858 20.9129 10.2602 20.8391 10.2331C20.725 10.2196 20.6646 10.4224 20.6378 10.8754C20.611 11.4027 20.6378 11.5312 20.7653 11.4568C20.8927 11.3824 20.8927 11.396 20.7921 11.5447C20.5908 11.8084 20.4567 26.0937 20.6445 26.9388C20.7586 27.3917 20.8927 27.6351 21.2081 27.8582L21.624 28.1827L24.9048 28.1354C28.5613 28.0881 28.823 28.0205 29.2188 27.2497C29.4939 26.7089 29.6079 22.4564 29.5409 15.0535C29.514 12.0382 29.4939 9.03649 29.4939 8.40775C29.4939 7.6776 29.4469 7.21111 29.353 7.1435C29.2658 7.10294 29.1786 7.12998 29.1517 7.20435C29.0913 7.42069 28.8766 7.39365 28.8766 7.16379C28.8766 7.01505 28.6754 6.97449 27.8099 6.97449C26.0923 6.97449 26.2198 6.55533 26.2332 12.3695C26.2467 15.0535 26.2802 18.0079 26.3205 18.9138C26.3808 20.1105 26.3607 20.5905 26.2601 20.5905C26.032 20.5905 26.0991 21.0705 26.3473 21.2057C26.4949 21.3071 26.5217 21.368 26.4077 21.4356C26.3205 21.5099 26.2467 22.1319 26.2198 23.2609C26.1796 24.7213 26.146 25.0255 25.9582 25.2148C25.7435 25.4311 25.7233 25.4311 25.569 25.2148C25.3812 24.9782 24.8579 24.9376 24.4821 25.1404C24.1064 25.3297 23.7173 24.9646 23.8179 24.5117C23.9052 24.1331 23.9655 13.6676 23.9052 9.87482L23.8582 7.27872L23.3215 6.98801C22.9592 6.78519 22.6975 6.71082 22.5432 6.78519C22.3084 6.8866 21.4697 6.8866 21.1074 6.77167C20.9934 6.77167 20.8391 6.81899 20.7519 6.9204ZM31.9025 6.90688C31.7616 7.09618 31.7146 11.6732 31.8555 12.2884C31.9159 12.525 31.9159 13.1199 31.8824 13.6135C31.8354 14.107 31.8421 14.56 31.9092 14.6479C32.0702 14.8507 31.9092 15.3172 31.6811 15.3172C31.5804 15.3172 31.5335 15.378 31.567 15.4456C31.6073 15.52 31.5536 15.662 31.453 15.7701C31.2249 16 31.1645 17.7645 31.3792 17.8997C31.453 17.9403 31.5066 18.089 31.5066 18.2175C31.5066 18.3459 31.567 18.4676 31.6475 18.4947C31.7616 18.5352 31.7951 19.6643 31.7951 22.6322C31.7817 25.0052 31.8354 26.79 31.9092 26.8847C31.9696 26.959 31.9696 27.0604 31.9226 27.0875C31.8622 27.1281 31.8354 27.3917 31.8622 27.6689L31.9092 28.1827L35.2504 28.1422C40.2285 28.1016 39.9401 28.4599 39.9535 22.2536C39.9535 18.0823 39.9401 17.893 39.7052 17.6361C38.9538 16.818 38.8666 16.6625 39.0679 16.5544C39.571 16.2772 39.6918 15.6958 39.7187 13.8028C39.7321 12.7954 39.7589 10.9633 39.779 9.73284C39.8193 7.61675 39.8059 7.47478 39.5509 7.23815C39.1618 6.84603 38.5781 6.77167 35.1833 6.75815C32.8149 6.75815 32.0031 6.78519 31.9025 6.90688ZM36.5855 9.78693C36.6593 9.91538 36.6593 10.8686 36.5855 14.5667C36.5721 15.4862 36.5117 15.5403 35.5724 15.3848L35.0357 15.3104L34.9619 14.2152C34.9216 13.6067 34.8881 13.0321 34.8746 12.9306C34.8746 12.8292 34.9149 12.045 34.9619 11.1931L35.0491 9.65171H35.7737C36.1695 9.64495 36.5318 9.7058 36.5855 9.78693ZM36.5318 18.6502C36.5788 18.7245 36.6324 19.6981 36.6324 20.8068C36.6324 21.9156 36.6459 23.3421 36.6459 23.9843C36.6593 24.6131 36.6324 25.1945 36.5855 25.2553C36.4848 25.4176 35.1833 25.3568 34.9686 25.1675C34.8277 25.0525 34.8075 24.9038 34.8813 24.559C34.9417 24.3089 34.9954 22.8823 34.9954 21.3815C34.9954 19.0355 35.0222 18.6434 35.1967 18.5217C35.4315 18.3459 36.3976 18.4338 36.5318 18.6502Z" fill="white"/>
</g>
<defs>
<clipPath id="clip0_998_3682">
<rect width="60" height="35" fill="white"/>
</clipPath>
</defs>
</svg>
